<?xml version="1.0" standalone="no"?>
<!DOCTYPE svg PUBLIC "-//W3C//DTD SVG 1.1//EN" "http://www.w3.org/Graphics/SVG/1.1/DTD/svg11.dtd">
<svg version="1.1" width="100%" height="100%" onload="init(evt)" viewBox="0 0 1900 1018" xmlns="http://www.w3.org/2000/svg" xmlns:xlink="http://www.w3.org/1999/xlink">
<!-- Flame graph stack visualization. See https://github.com/brendangregg/FlameGraph for latest version, and http://www.brendangregg.com/flamegraphs.html for examples. -->
<!-- NOTES:  -->
<defs>
	<linearGradient id="background" y1="0" y2="1" x1="0" x2="0" >
		<stop stop-color="#eeeeee" offset="5%" />
		<stop stop-color="#eeeeb0" offset="95%" />
	</linearGradient>
</defs>
<style type="text/css">
	text { font-family:Verdana; font-size:16px; fill:rgb(0,0,0); }
	#search, #ignorecase { opacity:0.1; cursor:pointer; }
	#search:hover, #search.show, #ignorecase:hover, #ignorecase.show { opacity:1; }
	#subtitle { text-anchor:middle; font-color:rgb(160,160,160); }
	#title { text-anchor:middle; font-size:21px}
	#unzoom { cursor:pointer; }
	#frames > *:hover { stroke:black; stroke-width:0.5; cursor:pointer; }
	.hide { display:none; }
	.parent { opacity:0.5; }
</style>
<script type="text/ecmascript">
<![CDATA[
	"use strict";
	var details, searchbtn, unzoombtn, matchedtxt, svg, searching, currentSearchTerm, ignorecase, ignorecaseBtn;
	function init(evt) {
		details = document.getElementById("details").firstChild;
		searchbtn = document.getElementById("search");
		ignorecaseBtn = document.getElementById("ignorecase");
		unzoombtn = document.getElementById("unzoom");
		matchedtxt = document.getElementById("matched");
		svg = document.getElementsByTagName("svg")[0];
		searching = 0;
		currentSearchTerm = null;

		// use GET parameters to restore a flamegraphs state.
		var params = get_params();
		if (params.x && params.y)
			zoom(find_group(document.querySelector('[x="' + params.x + '"][y="' + params.y + '"]')));
                if (params.s) search(params.s);
	}

	// event listeners
	window.addEventListener("click", function(e) {
		var target = find_group(e.target);
		if (target) {
			if (target.nodeName == "a") {
				if (e.ctrlKey === false) return;
				e.preventDefault();
			}
			if (target.classList.contains("parent")) unzoom(true);
			zoom(target);
			if (!document.querySelector('.parent')) {
				// we have basically done a clearzoom so clear the url
				var params = get_params();
				if (params.x) delete params.x;
				if (params.y) delete params.y;
				history.replaceState(null, null, parse_params(params));
				unzoombtn.classList.add("hide");
				return;
			}

			// set parameters for zoom state
			var el = target.querySelector("rect");
			if (el && el.attributes && el.attributes.y && el.attributes._orig_x) {
				var params = get_params()
				params.x = el.attributes._orig_x.value;
				params.y = el.attributes.y.value;
				history.replaceState(null, null, parse_params(params));
			}
		}
		else if (e.target.id == "unzoom") clearzoom();
		else if (e.target.id == "search") search_prompt();
		else if (e.target.id == "ignorecase") toggle_ignorecase();
	}, false)

	// mouse-over for info
	// show
	window.addEventListener("mouseover", function(e) {
		var target = find_group(e.target);
		if (target) details.nodeValue = "Function: " + g_to_text(target);
	}, false)

	// clear
	window.addEventListener("mouseout", function(e) {
		var target = find_group(e.target);
		if (target) details.nodeValue = ' ';
	}, false)

	// ctrl-F for search
	// ctrl-I to toggle case-sensitive search
	window.addEventListener("keydown",function (e) {
		if (e.keyCode === 114 || (e.ctrlKey && e.keyCode === 70)) {
			e.preventDefault();
			search_prompt();
		}
		else if (e.ctrlKey && e.keyCode === 73) {
			e.preventDefault();
			toggle_ignorecase();
		}
	}, false)

	// functions
	function get_params() {
		var params = {};
		var paramsarr = window.location.search.substr(1).split('&');
		for (var i = 0; i < paramsarr.length; ++i) {
			var tmp = paramsarr[i].split("=");
			if (!tmp[0] || !tmp[1]) continue;
			params[tmp[0]]  = decodeURIComponent(tmp[1]);
		}
		return params;
	}
	function parse_params(params) {
		var uri = "?";
		for (var key in params) {
			uri += key + '=' + encodeURIComponent(params[key]) + '&';
		}
		if (uri.slice(-1) == "&")
			uri = uri.substring(0, uri.length - 1);
		if (uri == '?')
			uri = window.location.href.split('?')[0];
		return uri;
	}
	function find_child(node, selector) {
		var children = node.querySelectorAll(selector);
		if (children.length) return children[0];
	}
	function find_group(node) {
		var parent = node.parentElement;
		if (!parent) return;
		if (parent.id == "frames") return node;
		return find_group(parent);
	}
	function orig_save(e, attr, val) {
		if (e.attributes["_orig_" + attr] != undefined) return;
		if (e.attributes[attr] == undefined) return;
		if (val == undefined) val = e.attributes[attr].value;
		e.setAttribute("_orig_" + attr, val);
	}
	function orig_load(e, attr) {
		if (e.attributes["_orig_"+attr] == undefined) return;
		e.attributes[attr].value = e.attributes["_orig_" + attr].value;
		e.removeAttribute("_orig_"+attr);
	}
	function g_to_text(e) {
		var text = find_child(e, "title").firstChild.nodeValue;
		return (text)
	}
	function g_to_func(e) {
		var func = g_to_text(e);
		// if there's any manipulation we want to do to the function
		// name before it's searched, do it here before returning.
		return (func);
	}
	function update_text(e) {
		var r = find_child(e, "rect");
		var t = find_child(e, "text");
		var w = parseFloat(r.attributes.width.value) -3;
		var txt = find_child(e, "title").textContent.replace(/\([^(]*\)$/,"");
		t.attributes.x.value = parseFloat(r.attributes.x.value) + 3;

		// Smaller than this size won't fit anything
		if (w < 2 * 16 * 0.59) {
			t.textContent = "";
			return;
		}

		t.textContent = txt;
		var sl = t.getSubStringLength(0, txt.length);
		// check if only whitespace or if we can fit the entire string into width w
		if (/^ *$/.test(txt) || sl < w)
			return;

		// this isn't perfect, but gives a good starting point
		// and avoids calling getSubStringLength too often
		var start = Math.floor((w/sl) * txt.length);
		for (var x = start; x > 0; x = x-2) {
			if (t.getSubStringLength(0, x + 2) <= w) {
				t.textContent = txt.substring(0, x) + "..";
				return;
			}
		}
		t.textContent = "";
	}

	// zoom
	function zoom_reset(e) {
		if (e.attributes != undefined) {
			orig_load(e, "x");
			orig_load(e, "width");
		}
		if (e.childNodes == undefined) return;
		for (var i = 0, c = e.childNodes; i < c.length; i++) {
			zoom_reset(c[i]);
		}
	}
	function zoom_child(e, x, ratio) {
		if (e.attributes != undefined) {
			if (e.attributes.x != undefined) {
				orig_save(e, "x");
				e.attributes.x.value = (parseFloat(e.attributes.x.value) - x - 10) * ratio + 10;
				if (e.tagName == "text")
					e.attributes.x.value = find_child(e.parentNode, "rect[x]").attributes.x.value + 3;
			}
			if (e.attributes.width != undefined) {
				orig_save(e, "width");
				e.attributes.width.value = parseFloat(e.attributes.width.value) * ratio;
			}
		}

		if (e.childNodes == undefined) return;
		for (var i = 0, c = e.childNodes; i < c.length; i++) {
			zoom_child(c[i], x - 10, ratio);
		}
	}
	function zoom_parent(e) {
		if (e.attributes) {
			if (e.attributes.x != undefined) {
				orig_save(e, "x");
				e.attributes.x.value = 10;
			}
			if (e.attributes.width != undefined) {
				orig_save(e, "width");
				e.attributes.width.value = parseInt(svg.viewBox.baseVal.width) - (10 * 2);
			}
		}
		if (e.childNodes == undefined) return;
		for (var i = 0, c = e.childNodes; i < c.length; i++) {
			zoom_parent(c[i]);
		}
	}
	function zoom(node) {
		var attr = find_child(node, "rect").attributes;
		var width = parseFloat(attr.width.value);
		var xmin = parseFloat(attr.x.value);
		var xmax = parseFloat(xmin + width);
		var ymin = parseFloat(attr.y.value);
		var ratio = (svg.viewBox.baseVal.width - 2 * 10) / width;

		// XXX: Workaround for JavaScript float issues (fix me)
		var fudge = 0.0001;

		unzoombtn.classList.remove("hide");

		var el = document.getElementById("frames").children;
		for (var i = 0; i < el.length; i++) {
			var e = el[i];
			var a = find_child(e, "rect").attributes;
			var ex = parseFloat(a.x.value);
			var ew = parseFloat(a.width.value);
			var upstack;
			// Is it an ancestor
			if (0 == 0) {
				upstack = parseFloat(a.y.value) > ymin;
			} else {
				upstack = parseFloat(a.y.value) < ymin;
			}
			if (upstack) {
				// Direct ancestor
				if (ex <= xmin && (ex+ew+fudge) >= xmax) {
					e.classList.add("parent");
					zoom_parent(e);
					update_text(e);
				}
				// not in current path
				else
					e.classList.add("hide");
			}
			// Children maybe
			else {
				// no common path
				if (ex < xmin || ex + fudge >= xmax) {
					e.classList.add("hide");
				}
				else {
					zoom_child(e, xmin, ratio);
					update_text(e);
				}
			}
		}
		search();
	}
	function unzoom(dont_update_text) {
		unzoombtn.classList.add("hide");
		var el = document.getElementById("frames").children;
		for(var i = 0; i < el.length; i++) {
			el[i].classList.remove("parent");
			el[i].classList.remove("hide");
			zoom_reset(el[i]);
			if(!dont_update_text) update_text(el[i]);
		}
		search();
	}
	function clearzoom() {
		unzoom();

		// remove zoom state
		var params = get_params();
		if (params.x) delete params.x;
		if (params.y) delete params.y;
		history.replaceState(null, null, parse_params(params));
	}

	// search
	function toggle_ignorecase() {
		ignorecase = !ignorecase;
		if (ignorecase) {
			ignorecaseBtn.classList.add("show");
		} else {
			ignorecaseBtn.classList.remove("show");
		}
		reset_search();
		search();
	}
	function reset_search() {
		var el = document.querySelectorAll("#frames rect");
		for (var i = 0; i < el.length; i++) {
			orig_load(el[i], "fill")
		}
		var params = get_params();
		delete params.s;
		history.replaceState(null, null, parse_params(params));
	}
	function search_prompt() {
		if (!searching) {
			var term = prompt("Enter a search term (regexp " +
			    "allowed, eg: ^ext4_)"
			    + (ignorecase ? ", ignoring case" : "")
			    + "\nPress Ctrl-i to toggle case sensitivity", "");
			if (term != null) search(term);
		} else {
			reset_search();
			searching = 0;
			currentSearchTerm = null;
			searchbtn.classList.remove("show");
			searchbtn.firstChild.nodeValue = "Search"
			matchedtxt.classList.add("hide");
			matchedtxt.firstChild.nodeValue = ""
		}
	}
	function search(term) {
		if (term) currentSearchTerm = term;
		if (currentSearchTerm === null) return;

		var re = new RegExp(currentSearchTerm, ignorecase ? 'i' : '');
		var el = document.getElementById("frames").children;
		var matches = new Object();
		var maxwidth = 0;
		for (var i = 0; i < el.length; i++) {
			var e = el[i];
			var func = g_to_func(e);
			var rect = find_child(e, "rect");
			if (func == null || rect == null)
				continue;

			// Save max width. Only works as we have a root frame
			var w = parseFloat(rect.attributes.width.value);
			if (w > maxwidth)
				maxwidth = w;

			if (func.match(re)) {
				// highlight
				var x = parseFloat(rect.attributes.x.value);
				orig_save(rect, "fill");
				rect.attributes.fill.value = "rgb(230,0,230)";

				// remember matches
				if (matches[x] == undefined) {
					matches[x] = w;
				} else {
					if (w > matches[x]) {
						// overwrite with parent
						matches[x] = w;
					}
				}
				searching = 1;
			}
		}
		if (!searching)
			return;
		var params = get_params();
		params.s = currentSearchTerm;
		history.replaceState(null, null, parse_params(params));

		searchbtn.classList.add("show");
		searchbtn.firstChild.nodeValue = "Reset Search";

		// calculate percent matched, excluding vertical overlap
		var count = 0;
		var lastx = -1;
		var lastw = 0;
		var keys = Array();
		for (k in matches) {
			if (matches.hasOwnProperty(k))
				keys.push(k);
		}
		// sort the matched frames by their x location
		// ascending, then width descending
		keys.sort(function(a, b){
			return a - b;
		});
		// Step through frames saving only the biggest bottom-up frames
		// thanks to the sort order. This relies on the tree property
		// where children are always smaller than their parents.
		var fudge = 0.0001;	// JavaScript floating point
		for (var k in keys) {
			var x = parseFloat(keys[k]);
			var w = matches[keys[k]];
			if (x >= lastx + lastw - fudge) {
				count += w;
				lastx = x;
				lastw = w;
			}
		}
		// display matched percent
		matchedtxt.classList.remove("hide");
		var pct = 100 * count / maxwidth;
		if (pct != 100) pct = pct.toFixed(1)
		matchedtxt.firstChild.nodeValue = "Matched: " + pct + "%";
	}
]]>
</script>
<rect x="0.0" y="0" width="1900.0" height="1018.0" fill="url(#background)"  />
<text id="title" x="950.00" y="32" >som_segment - baseline 3.89 s</text>
<text id="subtitle" x="950.00" y="64" >ct-segmentation-toolkit | cProfile 2026-07-15</text>
<text id="details" x="10.00" y="997" > </text>
<text id="unzoom" x="10.00" y="32" class="hide">Reset Zoom</text>
<text id="search" x="1790.00" y="32" >Search</text>
<text id="ignorecase" x="1874.00" y="32" >ic</text>
<text id="matched" x="1790.00" y="997" > </text>
<g id="frames">
<g >
<title>&lt;built-in method scipy.fft._pocketfft.pypocketfft.r2c&gt; (19,846 us, 0.55%)</title><rect x="265.4" y="337" width="10.3" height="63.0" fill="rgb(207,11,2)" rx="2" ry="2" />
<text  x="268.36" y="371.5" ></text>
</g>
<g >
<title>_gaussian (minisom.py:320) (239,939 us, 6.64%)</title><rect x="512.2" y="657" width="124.7" height="63.0" fill="rgb(245,188,45)" rx="2" ry="2" />
<text  x="515.18" y="691.5" >_gaussian (..</text>
</g>
<g >
<title>_find_and_load (&lt;frozen importlib._bootstrap&gt;:1349) (201 us, 0.01%)</title><rect x="111.3" y="465" width="0.1" height="63.0" fill="rgb(221,74,17)" rx="2" ry="2" />
<text  x="114.32" y="499.5" ></text>
</g>
<g >
<title>__enter__ (&lt;frozen importlib._bootstrap&gt;:416) (5,108 us, 0.14%)</title><rect x="49.5" y="721" width="2.6" height="63.0" fill="rgb(219,66,15)" rx="2" ry="2" />
<text  x="52.47" y="755.5" ></text>
</g>
<g >
<title>rfftn (_basic_backend.py:136) (53,782 us, 1.49%)</title><rect x="275.7" y="529" width="27.9" height="63.0" fill="rgb(250,208,49)" rx="2" ry="2" />
<text  x="278.68" y="563.5" ></text>
</g>
<g >
<title>uniform_filter1d (_filters.py:1498) (5,812 us, 0.16%)</title><rect x="348.4" y="657" width="3.0" height="63.0" fill="rgb(234,133,31)" rx="2" ry="2" />
<text  x="351.37" y="691.5" ></text>
</g>
<g >
<title>einsum (einsumfunc.py:1057) (101,481 us, 2.81%)</title><rect x="636.9" y="657" width="52.8" height="63.0" fill="rgb(229,111,26)" rx="2" ry="2" />
<text  x="639.94" y="691.5" >ein..</text>
</g>
<g >
<title>&lt;method 'conj' of 'numpy.ndarray' objects&gt; (4,290 us, 0.12%)</title><rect x="845.6" y="465" width="2.3" height="63.0" fill="rgb(215,50,12)" rx="2" ry="2" />
<text  x="848.64" y="499.5" ></text>
</g>
<g >
<title>c2rn (basic.py:186) (15,212 us, 0.42%)</title><rect x="256.4" y="401" width="7.9" height="63.0" fill="rgb(249,204,49)" rx="2" ry="2" />
<text  x="259.36" y="435.5" ></text>
</g>
<g >
<title>_find_and_load (&lt;frozen importlib._bootstrap&gt;:1349) (497 us, 0.01%)</title><rect x="214.7" y="337" width="0.2" height="63.0" fill="rgb(221,74,17)" rx="2" ry="2" />
<text  x="217.69" y="371.5" ></text>
</g>
<g >
<title>&lt;built-in method builtins.isinstance&gt; (19,422 us, 0.54%)</title><rect x="1614.5" y="529" width="10.1" height="63.0" fill="rgb(252,220,52)" rx="2" ry="2" />
<text  x="1617.50" y="563.5" ></text>
</g>
<g >
<title>_norm_dispatcher (_linalg.py:2619) (10,836 us, 0.30%)</title><rect x="1368.9" y="593" width="5.6" height="63.0" fill="rgb(247,196,46)" rx="2" ry="2" />
<text  x="1371.87" y="627.5" ></text>
</g>
<g >
<title>_normalize_per_feature (som_bands.py:104) (16,129 us, 0.45%)</title><rect x="238.3" y="785" width="8.4" height="63.0" fill="rgb(210,24,5)" rx="2" ry="2" />
<text  x="241.33" y="819.5" ></text>
</g>
<g >
<title>_find_and_load (&lt;frozen importlib._bootstrap&gt;:1349) (199 us, 0.01%)</title><rect x="140.8" y="401" width="0.1" height="63.0" fill="rgb(221,74,17)" rx="2" ry="2" />
<text  x="143.77" y="435.5" ></text>
</g>
<g >
<title>_check_mkl_vcomp (_kmeans.py:916) (12,748 us, 0.35%)</title><rect x="352.4" y="593" width="6.6" height="63.0" fill="rgb(206,6,1)" rx="2" ry="2" />
<text  x="355.41" y="627.5" ></text>
</g>
<g >
<title>&lt;built-in method builtins.__import__&gt; (221 us, 0.01%)</title><rect x="188.3" y="465" width="0.1" height="63.0" fill="rgb(220,73,17)" rx="2" ry="2" />
<text  x="191.27" y="499.5" ></text>
</g>
<g >
<title>r2cn (basic.py:157) (21,950 us, 0.61%)</title><rect x="264.3" y="401" width="11.4" height="63.0" fill="rgb(212,34,8)" rx="2" ry="2" />
<text  x="267.27" y="435.5" ></text>
</g>
<g >
<title>_compile_bytecode (&lt;frozen importlib._bootstrap_external&gt;:782) (8,625 us, 0.24%)</title><rect x="175.0" y="465" width="4.4" height="63.0" fill="rgb(210,26,6)" rx="2" ry="2" />
<text  x="177.96" y="499.5" ></text>
</g>
<g >
<title>&lt;built-in method scipy.ndimage._nd_image.correlate1d&gt; (14,225 us, 0.39%)</title><rect x="340.7" y="401" width="7.4" height="63.0" fill="rgb(205,2,0)" rx="2" ry="2" />
<text  x="343.70" y="435.5" ></text>
</g>
<g >
<title>unravel_index (multiarray.py:1061) (10,545 us, 0.29%)</title><rect x="1884.5" y="721" width="5.5" height="63.0" fill="rgb(253,223,53)" rx="2" ry="2" />
<text  x="1887.52" y="755.5" ></text>
</g>
<g >
<title>_execute_child (subprocess.py:1808) (4,567 us, 0.13%)</title><rect x="362.0" y="209" width="2.4" height="63.0" fill="rgb(232,124,29)" rx="2" ry="2" />
<text  x="365.04" y="243.5" ></text>
</g>
<g >
<title>&lt;method 'reduce' of 'numpy.ufunc' objects&gt; (438,660 us, 12.13%)</title><rect x="1656.4" y="529" width="228.1" height="63.0" fill="rgb(228,109,26)" rx="2" ry="2" />
<text  x="1659.44" y="563.5" >&lt;method 'reduce' of 'n..</text>
</g>
<g >
<title>&lt;built-in method scipy.fft._pocketfft.pypocketfft.r2c&gt; (28,639 us, 0.79%)</title><rect x="288.8" y="337" width="14.8" height="63.0" fill="rgb(207,11,2)" rx="2" ry="2" />
<text  x="291.75" y="371.5" ></text>
</g>
<g >
<title>&lt;built-in method numpy.array&gt; (28,442 us, 0.79%)</title><rect x="33.7" y="785" width="14.8" height="63.0" fill="rgb(246,192,46)" rx="2" ry="2" />
<text  x="36.66" y="819.5" ></text>
</g>
<g >
<title>stack (shape_base.py:380) (30,126 us, 0.83%)</title><rect x="323.2" y="721" width="15.6" height="63.0" fill="rgb(219,67,16)" rx="2" ry="2" />
<text  x="326.16" y="755.5" ></text>
</g>
<g >
<title>&lt;method 'argmin' of 'numpy.ndarray' objects&gt; (16,904 us, 0.47%)</title><rect x="714.7" y="657" width="8.8" height="63.0" fill="rgb(246,190,45)" rx="2" ry="2" />
<text  x="717.72" y="691.5" ></text>
</g>
<g >
<title>fit_predict (_kmeans.py:1047) (30,406 us, 0.84%)</title><rect x="351.4" y="785" width="15.8" height="63.0" fill="rgb(221,75,18)" rx="2" ry="2" />
<text  x="354.39" y="819.5" ></text>
</g>
<g >
<title>correlate1d (_filters.py:555) (36,938 us, 1.02%)</title><rect x="304.0" y="593" width="19.2" height="63.0" fill="rgb(229,111,26)" rx="2" ry="2" />
<text  x="306.95" y="627.5" ></text>
</g>
<g >
<title>_find_libraries_with_dyld (threadpoolctl.py:1019) (12,651 us, 0.35%)</title><rect x="352.5" y="337" width="6.5" height="63.0" fill="rgb(250,210,50)" rx="2" ry="2" />
<text  x="355.46" y="371.5" ></text>
</g>
<g >
<title>cpu_count (parallel.py:631) (5,950 us, 0.16%)</title><rect x="361.3" y="593" width="3.1" height="63.0" fill="rgb(248,199,47)" rx="2" ry="2" />
<text  x="364.32" y="627.5" ></text>
</g>
<g >
<title>&lt;built-in method _imp.exec_dynamic&gt; (1,483 us, 0.04%)</title><rect x="213.9" y="401" width="0.8" height="63.0" fill="rgb(240,163,39)" rx="2" ry="2" />
<text  x="216.89" y="435.5" ></text>
</g>
<g >
<title>_find_and_load (&lt;frozen importlib._bootstrap&gt;:1349) (365,186 us, 10.10%)</title><rect x="48.5" y="785" width="189.8" height="63.0" fill="rgb(221,74,17)" rx="2" ry="2" />
<text  x="51.45" y="819.5" >_find_and_load (&lt;f..</text>
</g>
<g >
<title>_execute_nD (_basic_backend.py:52) (53,758 us, 1.49%)</title><rect x="275.7" y="465" width="27.9" height="63.0" fill="rgb(239,159,38)" rx="2" ry="2" />
<text  x="278.69" y="499.5" ></text>
</g>
<g >
<title>extract_features (som_bands.py:26) (201,314 us, 5.57%)</title><rect x="246.7" y="785" width="104.7" height="63.0" fill="rgb(230,116,27)" rx="2" ry="2" />
<text  x="249.72" y="819.5" >extract_f..</text>
</g>
<g >
<title>_init_centroids (_kmeans.py:961) (4,381 us, 0.12%)</title><rect x="359.0" y="593" width="2.3" height="63.0" fill="rgb(215,46,11)" rx="2" ry="2" />
<text  x="362.04" y="627.5" ></text>
</g>
<g >
<title>_euclidean_distance (minisom.py:356) (320,529 us, 8.86%)</title><rect x="728.2" y="593" width="166.6" height="63.0" fill="rgb(218,60,14)" rx="2" ry="2" />
<text  x="731.19" y="627.5" >_euclidean_dist..</text>
</g>
<g >
<title>wrapper (base.py:1319) (30,394 us, 0.84%)</title><rect x="351.4" y="721" width="15.8" height="63.0" fill="rgb(253,221,53)" rx="2" ry="2" />
<text  x="354.40" y="755.5" ></text>
</g>
<g >
<title>_call_with_frames_removed (&lt;frozen importlib._bootstrap&gt;:480) (30,599 us, 0.85%)</title><rect x="181.8" y="529" width="15.9" height="63.0" fill="rgb(242,171,41)" rx="2" ry="2" />
<text  x="184.78" y="563.5" ></text>
</g>
<g >
<title>&lt;built-in method scipy.fft._pocketfft.pypocketfft.c2r&gt; (15,048 us, 0.42%)</title><rect x="256.4" y="337" width="7.9" height="63.0" fill="rgb(207,11,2)" rx="2" ry="2" />
<text  x="259.44" y="371.5" ></text>
</g>
<g >
<title>&lt;built-in method builtins.__import__&gt; (1,151 us, 0.03%)</title><rect x="86.4" y="593" width="0.6" height="63.0" fill="rgb(220,73,17)" rx="2" ry="2" />
<text  x="89.38" y="627.5" ></text>
</g>
<g >
<title>r2cn (basic.py:157) (31,675 us, 0.88%)</title><rect x="287.2" y="401" width="16.4" height="63.0" fill="rgb(212,34,8)" rx="2" ry="2" />
<text  x="290.17" y="435.5" ></text>
</g>
<g >
<title>&lt;built-in method _imp.exec_dynamic&gt; (2,080 us, 0.06%)</title><rect x="139.8" y="465" width="1.1" height="63.0" fill="rgb(240,163,39)" rx="2" ry="2" />
<text  x="142.79" y="499.5" ></text>
</g>
<g >
<title>norm (_linalg.py:2623) (980,876 us, 27.13%)</title><rect x="1374.5" y="593" width="510.0" height="63.0" fill="rgb(224,88,21)" rx="2" ry="2" />
<text  x="1377.51" y="627.5" >norm (_linalg.py:2623)</text>
</g>
<g >
<title>som_segment (som_bands.py:112) (3,615,720 us, 100.00%)</title><rect x="10.0" y="849" width="1880.0" height="63.0" fill="rgb(208,16,4)" rx="2" ry="2" />
<text  x="13.00" y="883.5" >som_segment (som_bands.py:112)</text>
</g>
<g >
<title>_make_controller_from_path (threadpoolctl.py:1131) (11,688 us, 0.32%)</title><rect x="353.0" y="273" width="6.0" height="63.0" fill="rgb(231,123,29)" rx="2" ry="2" />
<text  x="355.96" y="307.5" ></text>
</g>
<g >
<title>_asymptotic_decay (minisom.py:313) (8,787 us, 0.24%)</title><rect x="501.7" y="657" width="4.6" height="63.0" fill="rgb(209,22,5)" rx="2" ry="2" />
<text  x="504.69" y="691.5" ></text>
</g>
<g >
<title>&lt;built-in method builtins.isinstance&gt; (4,000 us, 0.11%)</title><rect x="843.6" y="465" width="2.0" height="63.0" fill="rgb(252,220,52)" rx="2" ry="2" />
<text  x="846.56" y="499.5" ></text>
</g>
<g >
<title>&lt;built-in method _imp.exec_dynamic&gt; (3,072 us, 0.08%)</title><rect x="84.8" y="593" width="1.6" height="63.0" fill="rgb(240,163,39)" rx="2" ry="2" />
<text  x="87.78" y="627.5" ></text>
</g>
<g >
<title>__init__ (subprocess.py:817) (4,672 us, 0.13%)</title><rect x="362.0" y="273" width="2.4" height="63.0" fill="rgb(215,47,11)" rx="2" ry="2" />
<text  x="364.98" y="307.5" ></text>
</g>
<g >
<title>gaussian_filter (_filters.py:756) (14,472 us, 0.40%)</title><rect x="340.6" y="593" width="7.5" height="63.0" fill="rgb(244,182,43)" rx="2" ry="2" />
<text  x="343.57" y="627.5" ></text>
</g>
<g >
<title>_einsum_dispatcher (einsumfunc.py:1049) (11,391 us, 0.32%)</title><rect x="506.3" y="657" width="5.9" height="63.0" fill="rgb(228,108,25)" rx="2" ry="2" />
<text  x="509.26" y="691.5" ></text>
</g>
<g >
<title>_get_spec (&lt;frozen importlib._bootstrap_external&gt;:1522) (9,407 us, 0.26%)</title><rect x="112.9" y="529" width="4.9" height="63.0" fill="rgb(254,227,54)" rx="2" ry="2" />
<text  x="115.94" y="563.5" ></text>
</g>
<g >
<title>__init__ (threadpoolctl.py:816) (12,711 us, 0.35%)</title><rect x="352.4" y="465" width="6.6" height="63.0" fill="rgb(233,132,31)" rx="2" ry="2" />
<text  x="355.43" y="499.5" ></text>
</g>
<g >
<title>run (subprocess.py:512) (5,785 us, 0.16%)</title><rect x="361.4" y="337" width="3.0" height="63.0" fill="rgb(235,139,33)" rx="2" ry="2" />
<text  x="364.40" y="371.5" ></text>
</g>
<g >
<title>&lt;method 'reduce' of 'numpy.ufunc' objects&gt; (90,351 us, 2.50%)</title><rect x="847.9" y="465" width="46.9" height="63.0" fill="rgb(228,109,26)" rx="2" ry="2" />
<text  x="850.87" y="499.5" >&lt;m..</text>
</g>
<g >
<title>correlate1d (_filters.py:555) (14,242 us, 0.39%)</title><rect x="340.7" y="465" width="7.4" height="63.0" fill="rgb(229,111,26)" rx="2" ry="2" />
<text  x="343.69" y="499.5" ></text>
</g>
<g >
<title>_activate (minisom.py:278) (1,599,873 us, 44.25%)</title><rect x="1052.7" y="721" width="831.8" height="63.0" fill="rgb(233,129,30)" rx="2" ry="2" />
<text  x="1055.66" y="755.5" >_activate (minisom.py:278)</text>
</g>
<g >
<title>fit (_kmeans.py:1432) (30,157 us, 0.83%)</title><rect x="351.5" y="657" width="15.7" height="63.0" fill="rgb(223,85,20)" rx="2" ry="2" />
<text  x="354.52" y="691.5" ></text>
</g>
<g >
<title>&lt;built-in method builtins.exec&gt; (17,904 us, 0.50%)</title><rect x="188.4" y="465" width="9.3" height="63.0" fill="rgb(214,44,10)" rx="2" ry="2" />
<text  x="191.38" y="499.5" ></text>
</g>
<g >
<title>_freq_domain_conv (_signaltools.py:511) (94,050 us, 2.60%)</title><rect x="254.7" y="657" width="48.9" height="63.0" fill="rgb(241,166,39)" rx="2" ry="2" />
<text  x="257.74" y="691.5" >_fr..</text>
</g>
<g >
<title>&lt;built-in method builtins.exec&gt; (47,528 us, 1.31%)</title><rect x="87.0" y="593" width="24.7" height="63.0" fill="rgb(214,44,10)" rx="2" ry="2" />
<text  x="89.98" y="627.5" ></text>
</g>
<g >
<title>_get_threadpool_controller (parallel.py:187) (12,718 us, 0.35%)</title><rect x="352.4" y="529" width="6.6" height="63.0" fill="rgb(214,41,9)" rx="2" ry="2" />
<text  x="355.43" y="563.5" ></text>
</g>
<g >
<title>_find_and_load_unlocked (&lt;frozen importlib._bootstrap&gt;:1304) (358,117 us, 9.90%)</title><rect x="52.1" y="721" width="186.2" height="63.0" fill="rgb(205,1,0)" rx="2" ry="2" />
<text  x="55.13" y="755.5" >_find_and_load_un..</text>
</g>
<g >
<title>_kmeans_plusplus (_kmeans.py:180) (4,343 us, 0.12%)</title><rect x="359.1" y="529" width="2.2" height="63.0" fill="rgb(231,122,29)" rx="2" ry="2" />
<text  x="362.06" y="563.5" ></text>
</g>
<g >
<title>&lt;built-in method builtins.exec&gt; (44,969 us, 1.24%)</title><rect x="214.9" y="401" width="23.4" height="63.0" fill="rgb(214,44,10)" rx="2" ry="2" />
<text  x="217.95" y="435.5" ></text>
</g>
<g >
<title>_count_physical_cores_darwin (context.py:311) (5,813 us, 0.16%)</title><rect x="361.4" y="401" width="3.0" height="63.0" fill="rgb(206,7,1)" rx="2" ry="2" />
<text  x="364.39" y="435.5" ></text>
</g>
<g >
<title>&lt;method 'get' of 'dict' objects&gt; (4,374 us, 0.12%)</title><rect x="393.6" y="721" width="2.3" height="63.0" fill="rgb(224,90,21)" rx="2" ry="2" />
<text  x="396.58" y="755.5" ></text>
</g>
<g >
<title>&lt;built-in method scipy.fft._pocketfft.pypocketfft.c2r&gt; (21,715 us, 0.60%)</title><rect x="275.9" y="337" width="11.3" height="63.0" fill="rgb(207,11,2)" rx="2" ry="2" />
<text  x="278.88" y="371.5" ></text>
</g>
<g >
<title>_call_with_frames_removed (&lt;frozen importlib._bootstrap&gt;:480) (76,568 us, 2.12%)</title><rect x="198.5" y="465" width="39.8" height="63.0" fill="rgb(242,171,41)" rx="2" ry="2" />
<text  x="201.52" y="499.5" >_c..</text>
</g>
<g >
<title>structure_tensor (corner.py:46) (17,843 us, 0.49%)</title><rect x="338.8" y="721" width="9.3" height="63.0" fill="rgb(238,156,37)" rx="2" ry="2" />
<text  x="341.82" y="755.5" ></text>
</g>
<g >
<title>_find_and_load (&lt;frozen importlib._bootstrap&gt;:1349) (294 us, 0.01%)</title><rect x="86.2" y="529" width="0.2" height="63.0" fill="rgb(221,74,17)" rx="2" ry="2" />
<text  x="89.22" y="563.5" ></text>
</g>
<g >
<title>_call_with_frames_removed (&lt;frozen importlib._bootstrap&gt;:480) (107,381 us, 2.97%)</title><rect x="118.2" y="529" width="55.9" height="63.0" fill="rgb(242,171,41)" rx="2" ry="2" />
<text  x="121.23" y="563.5" >_ca..</text>
</g>
<g >
<title>cpu_count (context.py:78) (5,948 us, 0.16%)</title><rect x="361.3" y="529" width="3.1" height="63.0" fill="rgb(241,166,39)" rx="2" ry="2" />
<text  x="364.32" y="563.5" ></text>
</g>
<g >
<title>winner (minisom.py:377) (1,913,934 us, 52.93%)</title><rect x="894.8" y="785" width="995.2" height="63.0" fill="rgb(224,88,21)" rx="2" ry="2" />
<text  x="897.85" y="819.5" >winner (minisom.py:377)</text>
</g>
<g >
<title>&lt;built-in method posix.lstat&gt; (5,709 us, 0.16%)</title><rect x="356.1" y="81" width="2.9" height="63.0" fill="rgb(227,103,24)" rx="2" ry="2" />
<text  x="359.07" y="115.5" ></text>
</g>
<g >
<title>norm (_linalg.py:2623) (202,032 us, 5.59%)</title><rect x="789.8" y="529" width="105.0" height="63.0" fill="rgb(224,88,21)" rx="2" ry="2" />
<text  x="792.80" y="563.5" >norm (_li..</text>
</g>
<g >
<title>train (minisom.py:482) (1,014,800 us, 28.07%)</title><rect x="367.2" y="785" width="527.6" height="63.0" fill="rgb(249,203,48)" rx="2" ry="2" />
<text  x="370.20" y="819.5" >train (minisom.py:482)</text>
</g>
<g >
<title>&lt;built-in method builtins.exec&gt; (63,051 us, 1.74%)</title><rect x="141.3" y="465" width="32.8" height="63.0" fill="rgb(214,44,10)" rx="2" ry="2" />
<text  x="144.28" y="499.5" >&lt;..</text>
</g>
<g >
<title>_find_and_load (&lt;frozen importlib._bootstrap&gt;:1349) (697 us, 0.02%)</title><rect x="140.9" y="401" width="0.4" height="63.0" fill="rgb(221,74,17)" rx="2" ry="2" />
<text  x="143.91" y="435.5" ></text>
</g>
<g >
<title>get_data (&lt;frozen importlib._bootstrap_external&gt;:1214) (4,469 us, 0.12%)</title><rect x="179.4" y="465" width="2.4" height="63.0" fill="rgb(240,164,39)" rx="2" ry="2" />
<text  x="182.45" y="499.5" ></text>
</g>
<g >
<title>&lt;built-in method _imp.exec_dynamic&gt; (591 us, 0.02%)</title><rect x="188.0" y="465" width="0.3" height="63.0" fill="rgb(240,163,39)" rx="2" ry="2" />
<text  x="190.96" y="499.5" ></text>
</g>
<g >
<title>_find_spec (&lt;frozen importlib._bootstrap&gt;:1240) (11,824 us, 0.33%)</title><rect x="111.7" y="657" width="6.1" height="63.0" fill="rgb(211,30,7)" rx="2" ry="2" />
<text  x="114.69" y="691.5" ></text>
</g>
<g >
<title>&lt;built-in method marshal.loads&gt; (7,391 us, 0.20%)</title><rect x="175.6" y="401" width="3.8" height="63.0" fill="rgb(243,179,42)" rx="2" ry="2" />
<text  x="178.60" y="435.5" ></text>
</g>
<g >
<title>winner (minisom.py:377) (394,541 us, 10.91%)</title><rect x="689.7" y="721" width="205.1" height="63.0" fill="rgb(224,88,21)" rx="2" ry="2" />
<text  x="692.70" y="755.5" >winner (minisom.py:..</text>
</g>
<g >
<title>create_module (&lt;frozen importlib._bootstrap_external&gt;:1318) (76,599 us, 2.12%)</title><rect x="198.5" y="529" width="39.8" height="63.0" fill="rgb(244,181,43)" rx="2" ry="2" />
<text  x="201.50" y="563.5" >cr..</text>
</g>
<g >
<title>_euclidean_distance (minisom.py:356) (1,556,183 us, 43.04%)</title><rect x="1075.4" y="657" width="809.1" height="63.0" fill="rgb(218,60,14)" rx="2" ry="2" />
<text  x="1078.38" y="691.5" >_euclidean_distance (minisom.py:356)</text>
</g>
<g >
<title>get_code (&lt;frozen importlib._bootstrap_external&gt;:1093) (14,828 us, 0.41%)</title><rect x="174.1" y="529" width="7.7" height="63.0" fill="rgb(252,216,51)" rx="2" ry="2" />
<text  x="177.06" y="563.5" ></text>
</g>
<g >
<title>&lt;built-in method scipy.ndimage._nd_image.uniform_filter1d&gt; (5,776 us, 0.16%)</title><rect x="348.4" y="593" width="3.0" height="63.0" fill="rgb(215,48,11)" rx="2" ry="2" />
<text  x="351.39" y="627.5" ></text>
</g>
<g >
<title>fftconvolve (_signaltools.py:615) (96,994 us, 2.68%)</title><rect x="253.2" y="721" width="50.4" height="63.0" fill="rgb(213,40,9)" rx="2" ry="2" />
<text  x="256.21" y="755.5" >fft..</text>
</g>
<g >
<title>&lt;built-in method _imp.create_dynamic&gt; (41,418 us, 1.15%)</title><rect x="118.3" y="465" width="21.5" height="63.0" fill="rgb(253,222,53)" rx="2" ry="2" />
<text  x="121.25" y="499.5" ></text>
</g>
<g >
<title>&lt;built-in method builtins.__import__&gt; (780 us, 0.02%)</title><rect x="140.9" y="465" width="0.4" height="63.0" fill="rgb(220,73,17)" rx="2" ry="2" />
<text  x="143.87" y="499.5" ></text>
</g>
<g >
<title>wrapper (parallel.py:206) (5,360 us, 0.15%)</title><rect x="364.4" y="593" width="2.8" height="63.0" fill="rgb(248,199,47)" rx="2" ry="2" />
<text  x="367.41" y="627.5" ></text>
</g>
<g >
<title>all (3,615,720 us, 100%)</title><rect x="10.0" y="913" width="1880.0" height="63.0" fill="rgb(213,39,9)" rx="2" ry="2" />
<text  x="13.00" y="947.5" ></text>
</g>
<g >
<title>_call_with_frames_removed (&lt;frozen importlib._bootstrap&gt;:480) (112,956 us, 3.12%)</title><rect x="53.0" y="657" width="58.7" height="63.0" fill="rgb(242,171,41)" rx="2" ry="2" />
<text  x="55.96" y="691.5" >_cal..</text>
</g>
<g >
<title>uniform_filter (_filters.py:1549) (6,328 us, 0.18%)</title><rect x="348.1" y="721" width="3.3" height="63.0" fill="rgb(215,50,12)" rx="2" ry="2" />
<text  x="351.10" y="755.5" ></text>
</g>
<g >
<title>update (minisom.py:383) (565,153 us, 15.63%)</title><rect x="395.9" y="721" width="293.8" height="63.0" fill="rgb(246,192,46)" rx="2" ry="2" />
<text  x="398.85" y="755.5" >update (minisom.py:383)</text>
</g>
<g >
<title>&lt;method 'argmin' of 'numpy.ndarray' objects&gt; (82,070 us, 2.27%)</title><rect x="1010.0" y="721" width="42.7" height="63.0" fill="rgb(246,190,45)" rx="2" ry="2" />
<text  x="1012.99" y="755.5" >&lt;m..</text>
</g>
<g >
<title>find_spec (&lt;frozen importlib._bootstrap_external&gt;:1551) (9,542 us, 0.26%)</title><rect x="112.9" y="593" width="4.9" height="63.0" fill="rgb(228,108,25)" rx="2" ry="2" />
<text  x="115.87" y="627.5" ></text>
</g>
<g >
<title>find_spec (&lt;frozen importlib._bootstrap_external&gt;:1624) (8,239 us, 0.23%)</title><rect x="113.6" y="465" width="4.2" height="63.0" fill="rgb(222,78,18)" rx="2" ry="2" />
<text  x="116.55" y="499.5" ></text>
</g>
<g >
<title>&lt;built-in method builtins.len&gt; (13,495 us, 0.37%)</title><rect x="1632.0" y="529" width="7.0" height="63.0" fill="rgb(223,85,20)" rx="2" ry="2" />
<text  x="1634.97" y="563.5" ></text>
</g>
<g >
<title>exec_module (&lt;frozen importlib._bootstrap_external&gt;:1020) (122,358 us, 3.38%)</title><rect x="118.1" y="593" width="63.7" height="63.0" fill="rgb(246,189,45)" rx="2" ry="2" />
<text  x="121.15" y="627.5" >exec..</text>
</g>
<g >
<title>gaussian_filter (_filters.py:756) (37,533 us, 1.04%)</title><rect x="303.6" y="721" width="19.6" height="63.0" fill="rgb(244,182,43)" rx="2" ry="2" />
<text  x="306.64" y="755.5" ></text>
</g>
<g >
<title>__ua_function__ (_backend.py:18) (91,075 us, 2.52%)</title><rect x="256.3" y="593" width="47.3" height="63.0" fill="rgb(244,180,43)" rx="2" ry="2" />
<text  x="259.29" y="627.5" >__u..</text>
</g>
<g >
<title>&lt;built-in method scipy.ndimage._nd_image.correlate1d&gt; (36,893 us, 1.02%)</title><rect x="304.0" y="529" width="19.2" height="63.0" fill="rgb(205,2,0)" rx="2" ry="2" />
<text  x="306.98" y="563.5" ></text>
</g>
<g >
<title>_execute_nD (_basic_backend.py:52) (37,206 us, 1.03%)</title><rect x="256.3" y="465" width="19.4" height="63.0" fill="rgb(239,159,38)" rx="2" ry="2" />
<text  x="259.33" y="499.5" ></text>
</g>
<g >
<title>gaussian_filter1d (_filters.py:687) (14,275 us, 0.39%)</title><rect x="340.7" y="529" width="7.4" height="63.0" fill="rgb(212,35,8)" rx="2" ry="2" />
<text  x="343.68" y="563.5" ></text>
</g>
<g >
<title>c2rn (basic.py:186) (21,951 us, 0.61%)</title><rect x="275.8" y="401" width="11.4" height="63.0" fill="rgb(249,204,49)" rx="2" ry="2" />
<text  x="278.76" y="435.5" ></text>
</g>
<g >
<title>_activate (minisom.py:278) (329,528 us, 9.11%)</title><rect x="723.5" y="657" width="171.3" height="63.0" fill="rgb(233,129,30)" rx="2" ry="2" />
<text  x="726.51" y="691.5" >_activate (minis..</text>
</g>
<g >
<title>_kmeans_single_lloyd (_kmeans.py:629) (4,953 us, 0.14%)</title><rect x="364.6" y="529" width="2.6" height="63.0" fill="rgb(218,63,15)" rx="2" ry="2" />
<text  x="367.62" y="563.5" ></text>
</g>
<g >
<title>&lt;built-in method _imp.create_dynamic&gt; (11,761 us, 0.33%)</title><rect x="181.8" y="465" width="6.2" height="63.0" fill="rgb(253,222,53)" rx="2" ry="2" />
<text  x="184.84" y="499.5" ></text>
</g>
<g >
<title>module_from_spec (&lt;frozen importlib._bootstrap&gt;:806) (78,161 us, 2.16%)</title><rect x="197.7" y="593" width="40.6" height="63.0" fill="rgb(230,118,28)" rx="2" ry="2" />
<text  x="200.69" y="627.5" >mo..</text>
</g>
<g >
<title>_count_physical_cores (context.py:227) (5,818 us, 0.16%)</title><rect x="361.4" y="465" width="3.0" height="63.0" fill="rgb(248,198,47)" rx="2" ry="2" />
<text  x="364.39" y="499.5" ></text>
</g>
<g >
<title>realpath (&lt;frozen posixpath&gt;:391) (8,802 us, 0.24%)</title><rect x="354.5" y="145" width="4.5" height="63.0" fill="rgb(243,178,42)" rx="2" ry="2" />
<text  x="357.46" y="179.5" ></text>
</g>
<g >
<title>_load_unlocked (&lt;frozen importlib._bootstrap&gt;:911) (231,742 us, 6.41%)</title><rect x="117.8" y="657" width="120.5" height="63.0" fill="rgb(250,208,49)" rx="2" ry="2" />
<text  x="120.84" y="691.5" >_load_unlo..</text>
</g>
<g >
<title>_find_and_load (&lt;frozen importlib._bootstrap&gt;:1349) (197 us, 0.01%)</title><rect x="188.3" y="401" width="0.1" height="63.0" fill="rgb(221,74,17)" rx="2" ry="2" />
<text  x="191.28" y="435.5" ></text>
</g>
<g >
<title>&lt;built-in method builtins.__import__&gt; (556 us, 0.02%)</title><rect x="214.7" y="401" width="0.2" height="63.0" fill="rgb(220,73,17)" rx="2" ry="2" />
<text  x="217.66" y="435.5" ></text>
</g>
<g >
<title>_realpath (threadpoolctl.py:545) (8,926 us, 0.25%)</title><rect x="354.4" y="209" width="4.6" height="63.0" fill="rgb(213,38,9)" rx="2" ry="2" />
<text  x="357.40" y="243.5" ></text>
</g>
<g >
<title>&lt;built-in method _imp.create_dynamic&gt; (61,180 us, 1.69%)</title><rect x="53.0" y="593" width="31.8" height="63.0" fill="rgb(253,222,53)" rx="2" ry="2" />
<text  x="55.97" y="627.5" >&lt;..</text>
</g>
<g >
<title>exec_module (&lt;frozen importlib._bootstrap_external&gt;:1326) (30,621 us, 0.85%)</title><rect x="181.8" y="593" width="15.9" height="63.0" fill="rgb(238,152,36)" rx="2" ry="2" />
<text  x="184.77" y="627.5" ></text>
</g>
<g >
<title>&lt;module&gt; (__init__.py:1) (544 us, 0.02%)</title><rect x="111.1" y="529" width="0.3" height="63.0" fill="rgb(207,11,2)" rx="2" ry="2" />
<text  x="114.15" y="563.5" ></text>
</g>
<g >
<title>_find_and_load (&lt;frozen importlib._bootstrap&gt;:1349) (1,029 us, 0.03%)</title><rect x="86.4" y="529" width="0.6" height="63.0" fill="rgb(221,74,17)" rx="2" ry="2" />
<text  x="89.44" y="563.5" ></text>
</g>
<g >
<title>gaussian (filters.py:19) (14,540 us, 0.40%)</title><rect x="340.5" y="657" width="7.6" height="63.0" fill="rgb(206,8,2)" rx="2" ry="2" />
<text  x="343.54" y="691.5" ></text>
</g>
<g >
<title>irfftn (_basic_backend.py:147) (37,218 us, 1.03%)</title><rect x="256.3" y="529" width="19.4" height="63.0" fill="rgb(209,19,4)" rx="2" ry="2" />
<text  x="259.33" y="563.5" ></text>
</g>
<g >
<title>&lt;method 'conj' of 'numpy.ndarray' objects&gt; (20,826 us, 0.58%)</title><rect x="1645.6" y="529" width="10.8" height="63.0" fill="rgb(215,50,12)" rx="2" ry="2" />
<text  x="1648.61" y="563.5" ></text>
</g>
<g >
<title>_load_libraries (threadpoolctl.py:967) (12,654 us, 0.35%)</title><rect x="352.5" y="401" width="6.5" height="63.0" fill="rgb(212,36,8)" rx="2" ry="2" />
<text  x="355.46" y="435.5" ></text>
</g>
<g >
<title>gaussian_filter1d (_filters.py:687) (37,024 us, 1.02%)</title><rect x="303.9" y="657" width="19.3" height="63.0" fill="rgb(212,35,8)" rx="2" ry="2" />
<text  x="306.91" y="691.5" ></text>
</g>
<g >
<title>&lt;built-in method numpy.asarray&gt; (12,724 us, 0.35%)</title><rect x="1639.0" y="529" width="6.6" height="63.0" fill="rgb(227,103,24)" rx="2" ry="2" />
<text  x="1641.99" y="563.5" ></text>
</g>
<g >
<title>&lt;built-in method numpy._core._multiarray_umath.c_einsum&gt; (94,384 us, 2.61%)</title><rect x="640.6" y="593" width="49.1" height="63.0" fill="rgb(225,95,22)" rx="2" ry="2" />
<text  x="643.63" y="627.5" >&lt;bu..</text>
</g>
<g >
<title>&lt;built-in method builtins.issubclass&gt; (14,187 us, 0.39%)</title><rect x="1624.6" y="529" width="7.4" height="63.0" fill="rgb(231,123,29)" rx="2" ry="2" />
<text  x="1627.60" y="563.5" ></text>
</g>
<g >
<title>&lt;built-in method _imp.create_dynamic&gt; (29,540 us, 0.82%)</title><rect x="198.5" y="401" width="15.4" height="63.0" fill="rgb(253,222,53)" rx="2" ry="2" />
<text  x="201.53" y="435.5" ></text>
</g>
</g>
</svg>
