<?xml version="1.0" standalone="no"?>
<!DOCTYPE svg PUBLIC "-//W3C//DTD SVG 1.1//EN" "http://www.w3.org/Graphics/SVG/1.1/DTD/svg11.dtd">
<svg version="1.1" width="100%" height="100%" onload="init(evt)" viewBox="0 0 1900 1018" xmlns="http://www.w3.org/2000/svg" xmlns:xlink="http://www.w3.org/1999/xlink">
<!-- Flame graph stack visualization. See https://github.com/brendangregg/FlameGraph for latest version, and http://www.brendangregg.com/flamegraphs.html for examples. -->
<!-- NOTES:  -->
<defs>
	<linearGradient id="background" y1="0" y2="1" x1="0" x2="0" >
		<stop stop-color="#eeeeee" offset="5%" />
		<stop stop-color="#eeeeb0" offset="95%" />
	</linearGradient>
</defs>
<style type="text/css">
	text { font-family:Verdana; font-size:16px; fill:rgb(0,0,0); }
	#search, #ignorecase { opacity:0.1; cursor:pointer; }
	#search:hover, #search.show, #ignorecase:hover, #ignorecase.show { opacity:1; }
	#subtitle { text-anchor:middle; font-color:rgb(160,160,160); }
	#title { text-anchor:middle; font-size:21px}
	#unzoom { cursor:pointer; }
	#frames > *:hover { stroke:black; stroke-width:0.5; cursor:pointer; }
	.hide { display:none; }
	.parent { opacity:0.5; }
</style>
<script type="text/ecmascript">
<![CDATA[
	"use strict";
	var details, searchbtn, unzoombtn, matchedtxt, svg, searching, currentSearchTerm, ignorecase, ignorecaseBtn;
	function init(evt) {
		details = document.getElementById("details").firstChild;
		searchbtn = document.getElementById("search");
		ignorecaseBtn = document.getElementById("ignorecase");
		unzoombtn = document.getElementById("unzoom");
		matchedtxt = document.getElementById("matched");
		svg = document.getElementsByTagName("svg")[0];
		searching = 0;
		currentSearchTerm = null;

		// use GET parameters to restore a flamegraphs state.
		var params = get_params();
		if (params.x && params.y)
			zoom(find_group(document.querySelector('[x="' + params.x + '"][y="' + params.y + '"]')));
                if (params.s) search(params.s);
	}

	// event listeners
	window.addEventListener("click", function(e) {
		var target = find_group(e.target);
		if (target) {
			if (target.nodeName == "a") {
				if (e.ctrlKey === false) return;
				e.preventDefault();
			}
			if (target.classList.contains("parent")) unzoom(true);
			zoom(target);
			if (!document.querySelector('.parent')) {
				// we have basically done a clearzoom so clear the url
				var params = get_params();
				if (params.x) delete params.x;
				if (params.y) delete params.y;
				history.replaceState(null, null, parse_params(params));
				unzoombtn.classList.add("hide");
				return;
			}

			// set parameters for zoom state
			var el = target.querySelector("rect");
			if (el && el.attributes && el.attributes.y && el.attributes._orig_x) {
				var params = get_params()
				params.x = el.attributes._orig_x.value;
				params.y = el.attributes.y.value;
				history.replaceState(null, null, parse_params(params));
			}
		}
		else if (e.target.id == "unzoom") clearzoom();
		else if (e.target.id == "search") search_prompt();
		else if (e.target.id == "ignorecase") toggle_ignorecase();
	}, false)

	// mouse-over for info
	// show
	window.addEventListener("mouseover", function(e) {
		var target = find_group(e.target);
		if (target) details.nodeValue = "Function: " + g_to_text(target);
	}, false)

	// clear
	window.addEventListener("mouseout", function(e) {
		var target = find_group(e.target);
		if (target) details.nodeValue = ' ';
	}, false)

	// ctrl-F for search
	// ctrl-I to toggle case-sensitive search
	window.addEventListener("keydown",function (e) {
		if (e.keyCode === 114 || (e.ctrlKey && e.keyCode === 70)) {
			e.preventDefault();
			search_prompt();
		}
		else if (e.ctrlKey && e.keyCode === 73) {
			e.preventDefault();
			toggle_ignorecase();
		}
	}, false)

	// functions
	function get_params() {
		var params = {};
		var paramsarr = window.location.search.substr(1).split('&');
		for (var i = 0; i < paramsarr.length; ++i) {
			var tmp = paramsarr[i].split("=");
			if (!tmp[0] || !tmp[1]) continue;
			params[tmp[0]]  = decodeURIComponent(tmp[1]);
		}
		return params;
	}
	function parse_params(params) {
		var uri = "?";
		for (var key in params) {
			uri += key + '=' + encodeURIComponent(params[key]) + '&';
		}
		if (uri.slice(-1) == "&")
			uri = uri.substring(0, uri.length - 1);
		if (uri == '?')
			uri = window.location.href.split('?')[0];
		return uri;
	}
	function find_child(node, selector) {
		var children = node.querySelectorAll(selector);
		if (children.length) return children[0];
	}
	function find_group(node) {
		var parent = node.parentElement;
		if (!parent) return;
		if (parent.id == "frames") return node;
		return find_group(parent);
	}
	function orig_save(e, attr, val) {
		if (e.attributes["_orig_" + attr] != undefined) return;
		if (e.attributes[attr] == undefined) return;
		if (val == undefined) val = e.attributes[attr].value;
		e.setAttribute("_orig_" + attr, val);
	}
	function orig_load(e, attr) {
		if (e.attributes["_orig_"+attr] == undefined) return;
		e.attributes[attr].value = e.attributes["_orig_" + attr].value;
		e.removeAttribute("_orig_"+attr);
	}
	function g_to_text(e) {
		var text = find_child(e, "title").firstChild.nodeValue;
		return (text)
	}
	function g_to_func(e) {
		var func = g_to_text(e);
		// if there's any manipulation we want to do to the function
		// name before it's searched, do it here before returning.
		return (func);
	}
	function update_text(e) {
		var r = find_child(e, "rect");
		var t = find_child(e, "text");
		var w = parseFloat(r.attributes.width.value) -3;
		var txt = find_child(e, "title").textContent.replace(/\([^(]*\)$/,"");
		t.attributes.x.value = parseFloat(r.attributes.x.value) + 3;

		// Smaller than this size won't fit anything
		if (w < 2 * 16 * 0.59) {
			t.textContent = "";
			return;
		}

		t.textContent = txt;
		var sl = t.getSubStringLength(0, txt.length);
		// check if only whitespace or if we can fit the entire string into width w
		if (/^ *$/.test(txt) || sl < w)
			return;

		// this isn't perfect, but gives a good starting point
		// and avoids calling getSubStringLength too often
		var start = Math.floor((w/sl) * txt.length);
		for (var x = start; x > 0; x = x-2) {
			if (t.getSubStringLength(0, x + 2) <= w) {
				t.textContent = txt.substring(0, x) + "..";
				return;
			}
		}
		t.textContent = "";
	}

	// zoom
	function zoom_reset(e) {
		if (e.attributes != undefined) {
			orig_load(e, "x");
			orig_load(e, "width");
		}
		if (e.childNodes == undefined) return;
		for (var i = 0, c = e.childNodes; i < c.length; i++) {
			zoom_reset(c[i]);
		}
	}
	function zoom_child(e, x, ratio) {
		if (e.attributes != undefined) {
			if (e.attributes.x != undefined) {
				orig_save(e, "x");
				e.attributes.x.value = (parseFloat(e.attributes.x.value) - x - 10) * ratio + 10;
				if (e.tagName == "text")
					e.attributes.x.value = find_child(e.parentNode, "rect[x]").attributes.x.value + 3;
			}
			if (e.attributes.width != undefined) {
				orig_save(e, "width");
				e.attributes.width.value = parseFloat(e.attributes.width.value) * ratio;
			}
		}

		if (e.childNodes == undefined) return;
		for (var i = 0, c = e.childNodes; i < c.length; i++) {
			zoom_child(c[i], x - 10, ratio);
		}
	}
	function zoom_parent(e) {
		if (e.attributes) {
			if (e.attributes.x != undefined) {
				orig_save(e, "x");
				e.attributes.x.value = 10;
			}
			if (e.attributes.width != undefined) {
				orig_save(e, "width");
				e.attributes.width.value = parseInt(svg.viewBox.baseVal.width) - (10 * 2);
			}
		}
		if (e.childNodes == undefined) return;
		for (var i = 0, c = e.childNodes; i < c.length; i++) {
			zoom_parent(c[i]);
		}
	}
	function zoom(node) {
		var attr = find_child(node, "rect").attributes;
		var width = parseFloat(attr.width.value);
		var xmin = parseFloat(attr.x.value);
		var xmax = parseFloat(xmin + width);
		var ymin = parseFloat(attr.y.value);
		var ratio = (svg.viewBox.baseVal.width - 2 * 10) / width;

		// XXX: Workaround for JavaScript float issues (fix me)
		var fudge = 0.0001;

		unzoombtn.classList.remove("hide");

		var el = document.getElementById("frames").children;
		for (var i = 0; i < el.length; i++) {
			var e = el[i];
			var a = find_child(e, "rect").attributes;
			var ex = parseFloat(a.x.value);
			var ew = parseFloat(a.width.value);
			var upstack;
			// Is it an ancestor
			if (0 == 0) {
				upstack = parseFloat(a.y.value) > ymin;
			} else {
				upstack = parseFloat(a.y.value) < ymin;
			}
			if (upstack) {
				// Direct ancestor
				if (ex <= xmin && (ex+ew+fudge) >= xmax) {
					e.classList.add("parent");
					zoom_parent(e);
					update_text(e);
				}
				// not in current path
				else
					e.classList.add("hide");
			}
			// Children maybe
			else {
				// no common path
				if (ex < xmin || ex + fudge >= xmax) {
					e.classList.add("hide");
				}
				else {
					zoom_child(e, xmin, ratio);
					update_text(e);
				}
			}
		}
		search();
	}
	function unzoom(dont_update_text) {
		unzoombtn.classList.add("hide");
		var el = document.getElementById("frames").children;
		for(var i = 0; i < el.length; i++) {
			el[i].classList.remove("parent");
			el[i].classList.remove("hide");
			zoom_reset(el[i]);
			if(!dont_update_text) update_text(el[i]);
		}
		search();
	}
	function clearzoom() {
		unzoom();

		// remove zoom state
		var params = get_params();
		if (params.x) delete params.x;
		if (params.y) delete params.y;
		history.replaceState(null, null, parse_params(params));
	}

	// search
	function toggle_ignorecase() {
		ignorecase = !ignorecase;
		if (ignorecase) {
			ignorecaseBtn.classList.add("show");
		} else {
			ignorecaseBtn.classList.remove("show");
		}
		reset_search();
		search();
	}
	function reset_search() {
		var el = document.querySelectorAll("#frames rect");
		for (var i = 0; i < el.length; i++) {
			orig_load(el[i], "fill")
		}
		var params = get_params();
		delete params.s;
		history.replaceState(null, null, parse_params(params));
	}
	function search_prompt() {
		if (!searching) {
			var term = prompt("Enter a search term (regexp " +
			    "allowed, eg: ^ext4_)"
			    + (ignorecase ? ", ignoring case" : "")
			    + "\nPress Ctrl-i to toggle case sensitivity", "");
			if (term != null) search(term);
		} else {
			reset_search();
			searching = 0;
			currentSearchTerm = null;
			searchbtn.classList.remove("show");
			searchbtn.firstChild.nodeValue = "Search"
			matchedtxt.classList.add("hide");
			matchedtxt.firstChild.nodeValue = ""
		}
	}
	function search(term) {
		if (term) currentSearchTerm = term;
		if (currentSearchTerm === null) return;

		var re = new RegExp(currentSearchTerm, ignorecase ? 'i' : '');
		var el = document.getElementById("frames").children;
		var matches = new Object();
		var maxwidth = 0;
		for (var i = 0; i < el.length; i++) {
			var e = el[i];
			var func = g_to_func(e);
			var rect = find_child(e, "rect");
			if (func == null || rect == null)
				continue;

			// Save max width. Only works as we have a root frame
			var w = parseFloat(rect.attributes.width.value);
			if (w > maxwidth)
				maxwidth = w;

			if (func.match(re)) {
				// highlight
				var x = parseFloat(rect.attributes.x.value);
				orig_save(rect, "fill");
				rect.attributes.fill.value = "rgb(230,0,230)";

				// remember matches
				if (matches[x] == undefined) {
					matches[x] = w;
				} else {
					if (w > matches[x]) {
						// overwrite with parent
						matches[x] = w;
					}
				}
				searching = 1;
			}
		}
		if (!searching)
			return;
		var params = get_params();
		params.s = currentSearchTerm;
		history.replaceState(null, null, parse_params(params));

		searchbtn.classList.add("show");
		searchbtn.firstChild.nodeValue = "Reset Search";

		// calculate percent matched, excluding vertical overlap
		var count = 0;
		var lastx = -1;
		var lastw = 0;
		var keys = Array();
		for (k in matches) {
			if (matches.hasOwnProperty(k))
				keys.push(k);
		}
		// sort the matched frames by their x location
		// ascending, then width descending
		keys.sort(function(a, b){
			return a - b;
		});
		// Step through frames saving only the biggest bottom-up frames
		// thanks to the sort order. This relies on the tree property
		// where children are always smaller than their parents.
		var fudge = 0.0001;	// JavaScript floating point
		for (var k in keys) {
			var x = parseFloat(keys[k]);
			var w = matches[keys[k]];
			if (x >= lastx + lastw - fudge) {
				count += w;
				lastx = x;
				lastw = w;
			}
		}
		// display matched percent
		matchedtxt.classList.remove("hide");
		var pct = 100 * count / maxwidth;
		if (pct != 100) pct = pct.toFixed(1)
		matchedtxt.firstChild.nodeValue = "Matched: " + pct + "%";
	}
]]>
</script>
<rect x="0.0" y="0" width="1900.0" height="1018.0" fill="url(#background)"  />
<text id="title" x="950.00" y="32" >som_segment - after BMU vectorization 2.31 s (1.68x)</text>
<text id="subtitle" x="950.00" y="64" >ct-segmentation-toolkit | cProfile 2026-07-15</text>
<text id="details" x="10.00" y="997" > </text>
<text id="unzoom" x="10.00" y="32" class="hide">Reset Zoom</text>
<text id="search" x="1790.00" y="32" >Search</text>
<text id="ignorecase" x="1874.00" y="32" >ic</text>
<text id="matched" x="1790.00" y="997" > </text>
<g id="frames">
<g >
<title>&lt;built-in method scipy.fft._pocketfft.pypocketfft.c2r&gt; (24,067 us, 1.32%)</title><rect x="671.6" y="337" width="24.8" height="63.0" fill="rgb(207,11,2)" rx="2" ry="2" />
<text  x="674.63" y="371.5" ></text>
</g>
<g >
<title>_count_physical_cores_darwin (context.py:311) (8,717 us, 0.48%)</title><rect x="855.5" y="401" width="9.0" height="63.0" fill="rgb(206,7,1)" rx="2" ry="2" />
<text  x="858.50" y="435.5" ></text>
</g>
<g >
<title>gaussian_filter (_filters.py:756) (14,409 us, 0.79%)</title><rect x="811.4" y="593" width="14.8" height="63.0" fill="rgb(244,182,43)" rx="2" ry="2" />
<text  x="814.38" y="627.5" ></text>
</g>
<g >
<title>&lt;module&gt; (__init__.py:1) (746 us, 0.04%)</title><rect x="295.0" y="529" width="0.7" height="63.0" fill="rgb(207,11,2)" rx="2" ry="2" />
<text  x="297.96" y="563.5" ></text>
</g>
<g >
<title>&lt;built-in method builtins.exec&gt; (33,411 us, 1.83%)</title><rect x="370.1" y="465" width="34.4" height="63.0" fill="rgb(214,44,10)" rx="2" ry="2" />
<text  x="373.10" y="499.5" >&lt;..</text>
</g>
<g >
<title>get_data (&lt;frozen importlib._bootstrap_external&gt;:1214) (24,497 us, 1.34%)</title><rect x="414.5" y="465" width="25.2" height="63.0" fill="rgb(240,164,39)" rx="2" ry="2" />
<text  x="417.51" y="499.5" ></text>
</g>
<g >
<title>&lt;built-in method marshal.loads&gt; (6,924 us, 0.38%)</title><rect x="407.4" y="401" width="7.1" height="63.0" fill="rgb(243,179,42)" rx="2" ry="2" />
<text  x="410.38" y="435.5" ></text>
</g>
<g >
<title>gaussian_filter1d (_filters.py:687) (36,189 us, 1.98%)</title><rect x="734.3" y="657" width="37.2" height="63.0" fill="rgb(212,35,8)" rx="2" ry="2" />
<text  x="737.27" y="691.5" >g..</text>
</g>
<g >
<title>wrapper (parallel.py:206) (10,154 us, 0.56%)</title><rect x="864.5" y="593" width="10.4" height="63.0" fill="rgb(248,199,47)" rx="2" ry="2" />
<text  x="867.48" y="627.5" ></text>
</g>
<g >
<title>&lt;method 'reduce' of 'numpy.ufunc' objects&gt; (2,439 us, 0.13%)</title><rect x="579.5" y="593" width="2.5" height="63.0" fill="rgb(228,109,26)" rx="2" ry="2" />
<text  x="582.46" y="627.5" ></text>
</g>
<g >
<title>&lt;method 'conj' of 'numpy.ndarray' objects&gt; (4,709 us, 0.26%)</title><rect x="1796.6" y="465" width="4.9" height="63.0" fill="rgb(215,50,12)" rx="2" ry="2" />
<text  x="1799.65" y="499.5" ></text>
</g>
<g >
<title>&lt;built-in method builtins.exec&gt; (54,796 us, 3.00%)</title><rect x="239.9" y="593" width="56.5" height="63.0" fill="rgb(214,44,10)" rx="2" ry="2" />
<text  x="242.94" y="627.5" >&lt;bu..</text>
</g>
<g >
<title>_wrapfunc (fromnumeric.py:51) (14,837 us, 0.81%)</title><rect x="585.3" y="721" width="15.3" height="63.0" fill="rgb(220,69,16)" rx="2" ry="2" />
<text  x="588.27" y="755.5" ></text>
</g>
<g >
<title>_apply_conv_mode (_signaltools.py:577) (4,156 us, 0.23%)</title><rect x="618.3" y="657" width="4.3" height="63.0" fill="rgb(251,213,51)" rx="2" ry="2" />
<text  x="621.30" y="691.5" ></text>
</g>
<g >
<title>fftconvolve (_signaltools.py:615) (114,047 us, 6.25%)</title><rect x="616.3" y="721" width="117.4" height="63.0" fill="rgb(213,40,9)" rx="2" ry="2" />
<text  x="619.27" y="755.5" >fftconvolv..</text>
</g>
<g >
<title>__init__ (subprocess.py:817) (7,093 us, 0.39%)</title><rect x="857.2" y="273" width="7.3" height="63.0" fill="rgb(215,47,11)" rx="2" ry="2" />
<text  x="860.17" y="307.5" ></text>
</g>
<g >
<title>_activate (minisom.py:278) (320,557 us, 17.56%)</title><rect x="1559.8" y="657" width="330.2" height="63.0" fill="rgb(233,129,30)" rx="2" ry="2" />
<text  x="1562.83" y="691.5" >_activate (minisom.py:278)</text>
</g>
<g >
<title>&lt;method 'read' of '_io.BufferedReader' objects&gt; (20,794 us, 1.14%)</title><rect x="418.3" y="401" width="21.4" height="63.0" fill="rgb(206,6,1)" rx="2" ry="2" />
<text  x="421.32" y="435.5" ></text>
</g>
<g >
<title>_euclidean_distance (minisom.py:356) (311,083 us, 17.04%)</title><rect x="1569.6" y="593" width="320.4" height="63.0" fill="rgb(218,60,14)" rx="2" ry="2" />
<text  x="1572.59" y="627.5" >_euclidean_distance (minisom.py..</text>
</g>
<g >
<title>cpu_count (parallel.py:631) (8,882 us, 0.49%)</title><rect x="855.3" y="593" width="9.2" height="63.0" fill="rgb(248,199,47)" rx="2" ry="2" />
<text  x="858.33" y="627.5" ></text>
</g>
<g >
<title>&lt;built-in method _imp.create_dynamic&gt; (37,281 us, 2.04%)</title><rect x="487.1" y="401" width="38.4" height="63.0" fill="rgb(253,222,53)" rx="2" ry="2" />
<text  x="490.09" y="435.5" >&lt;b..</text>
</g>
<g >
<title>_asarray (_array_api.py:170) (3,921 us, 0.21%)</title><rect x="618.5" y="529" width="4.1" height="63.0" fill="rgb(220,70,16)" rx="2" ry="2" />
<text  x="621.55" y="563.5" ></text>
</g>
<g >
<title>&lt;built-in method _imp.create_dynamic&gt; (52,228 us, 2.86%)</title><rect x="309.3" y="465" width="53.8" height="63.0" fill="rgb(253,222,53)" rx="2" ry="2" />
<text  x="312.33" y="499.5" >&lt;bu..</text>
</g>
<g >
<title>find_spec (&lt;frozen importlib._bootstrap_external&gt;:1551) (9,577 us, 0.52%)</title><rect x="298.6" y="593" width="9.9" height="63.0" fill="rgb(228,108,25)" rx="2" ry="2" />
<text  x="301.59" y="627.5" ></text>
</g>
<g >
<title>_check_mkl_vcomp (_kmeans.py:916) (12,483 us, 0.68%)</title><rect x="837.3" y="593" width="12.9" height="63.0" fill="rgb(206,6,1)" rx="2" ry="2" />
<text  x="840.29" y="627.5" ></text>
</g>
<g >
<title>&lt;built-in method numpy.array&gt; (3,904 us, 0.21%)</title><rect x="618.6" y="465" width="4.0" height="63.0" fill="rgb(246,192,46)" rx="2" ry="2" />
<text  x="621.56" y="499.5" ></text>
</g>
<g >
<title>fit (_kmeans.py:1432) (40,815 us, 2.24%)</title><rect x="832.9" y="657" width="42.0" height="63.0" fill="rgb(223,85,20)" rx="2" ry="2" />
<text  x="835.89" y="691.5" >fi..</text>
</g>
<g >
<title>correlate1d (_filters.py:555) (2,730 us, 0.15%)</title><rect x="808.5" y="529" width="2.8" height="63.0" fill="rgb(229,111,26)" rx="2" ry="2" />
<text  x="811.50" y="563.5" ></text>
</g>
<g >
<title>_find_and_load (&lt;frozen importlib._bootstrap&gt;:1349) (162 us, 0.01%)</title><rect x="404.0" y="337" width="0.1" height="63.0" fill="rgb(221,74,17)" rx="2" ry="2" />
<text  x="406.95" y="371.5" ></text>
</g>
<g >
<title>_find_and_load (&lt;frozen importlib._bootstrap&gt;:1349) (265 us, 0.01%)</title><rect x="295.5" y="465" width="0.2" height="63.0" fill="rgb(221,74,17)" rx="2" ry="2" />
<text  x="298.46" y="499.5" ></text>
</g>
<g >
<title>correlate1d (_filters.py:555) (36,106 us, 1.98%)</title><rect x="734.4" y="593" width="37.1" height="63.0" fill="rgb(229,111,26)" rx="2" ry="2" />
<text  x="737.36" y="627.5" >c..</text>
</g>
<g >
<title>_make_controller_from_path (threadpoolctl.py:1131) (11,498 us, 0.63%)</title><rect x="838.3" y="273" width="11.9" height="63.0" fill="rgb(231,123,29)" rx="2" ry="2" />
<text  x="841.31" y="307.5" ></text>
</g>
<g >
<title>get_code (&lt;frozen importlib._bootstrap_external&gt;:1093) (34,203 us, 1.87%)</title><rect x="404.5" y="529" width="35.2" height="63.0" fill="rgb(252,216,51)" rx="2" ry="2" />
<text  x="407.51" y="563.5" >g..</text>
</g>
<g >
<title>_gaussian (minisom.py:320) (232,850 us, 12.76%)</title><rect x="1153.5" y="657" width="239.8" height="63.0" fill="rgb(245,188,45)" rx="2" ry="2" />
<text  x="1156.47" y="691.5" >_gaussian (minisom.py:3..</text>
</g>
<g >
<title>_get_spec (&lt;frozen importlib._bootstrap_external&gt;:1522) (9,444 us, 0.52%)</title><rect x="298.7" y="529" width="9.8" height="63.0" fill="rgb(254,227,54)" rx="2" ry="2" />
<text  x="301.73" y="563.5" ></text>
</g>
<g >
<title>&lt;built-in method builtins.issubclass&gt; (2,757 us, 0.15%)</title><rect x="1788.1" y="465" width="2.8" height="63.0" fill="rgb(231,123,29)" rx="2" ry="2" />
<text  x="1791.10" y="499.5" ></text>
</g>
<g >
<title>_find_and_load_unlocked (&lt;frozen importlib._bootstrap&gt;:1304) (157 us, 0.01%)</title><rect x="239.8" y="465" width="0.1" height="63.0" fill="rgb(205,1,0)" rx="2" ry="2" />
<text  x="242.78" y="499.5" ></text>
</g>
<g >
<title>gaussian (filters.py:19) (14,473 us, 0.79%)</title><rect x="811.3" y="657" width="14.9" height="63.0" fill="rgb(206,8,2)" rx="2" ry="2" />
<text  x="814.31" y="691.5" ></text>
</g>
<g >
<title>&lt;built-in method posix.lstat&gt; (5,749 us, 0.31%)</title><rect x="844.2" y="81" width="6.0" height="63.0" fill="rgb(227,103,24)" rx="2" ry="2" />
<text  x="847.23" y="115.5" ></text>
</g>
<g >
<title>exec_module (&lt;frozen importlib._bootstrap_external&gt;:1020) (126,878 us, 6.95%)</title><rect x="309.1" y="593" width="130.6" height="63.0" fill="rgb(246,189,45)" rx="2" ry="2" />
<text  x="312.06" y="627.5" >exec_module..</text>
</g>
<g >
<title>c2rn (basic.py:186) (16,301 us, 0.89%)</title><rect x="628.3" y="401" width="16.8" height="63.0" fill="rgb(249,204,49)" rx="2" ry="2" />
<text  x="631.32" y="435.5" ></text>
</g>
<g >
<title>_compile_bytecode (&lt;frozen importlib._bootstrap_external&gt;:782) (8,063 us, 0.44%)</title><rect x="406.2" y="465" width="8.3" height="63.0" fill="rgb(210,26,6)" rx="2" ry="2" />
<text  x="409.20" y="499.5" ></text>
</g>
<g >
<title>_get_threadpool_controller (parallel.py:187) (12,453 us, 0.68%)</title><rect x="837.3" y="529" width="12.9" height="63.0" fill="rgb(214,41,9)" rx="2" ry="2" />
<text  x="840.32" y="563.5" ></text>
</g>
<g >
<title>_find_libraries_with_dyld (threadpoolctl.py:1019) (12,400 us, 0.68%)</title><rect x="837.4" y="337" width="12.8" height="63.0" fill="rgb(250,210,50)" rx="2" ry="2" />
<text  x="840.38" y="371.5" ></text>
</g>
<g >
<title>__ua_function__ (_backend.py:18) (102,485 us, 5.61%)</title><rect x="628.2" y="593" width="105.5" height="63.0" fill="rgb(244,180,43)" rx="2" ry="2" />
<text  x="631.18" y="627.5" >__ua_func..</text>
</g>
<g >
<title>&lt;built-in method _imp.exec_dynamic&gt; (9,874 us, 0.54%)</title><rect x="228.5" y="593" width="10.2" height="63.0" fill="rgb(240,163,39)" rx="2" ry="2" />
<text  x="231.51" y="627.5" ></text>
</g>
<g >
<title>uniform_filter1d (_filters.py:1498) (5,772 us, 0.32%)</title><rect x="826.7" y="657" width="5.9" height="63.0" fill="rgb(234,133,31)" rx="2" ry="2" />
<text  x="829.70" y="691.5" ></text>
</g>
<g >
<title>einsum (einsumfunc.py:1057) (98,365 us, 5.39%)</title><rect x="1393.3" y="657" width="101.3" height="63.0" fill="rgb(229,111,26)" rx="2" ry="2" />
<text  x="1396.30" y="691.5" >einsum (..</text>
</g>
<g >
<title>winner (minisom.py:377) (383,881 us, 21.03%)</title><rect x="1494.6" y="721" width="395.4" height="63.0" fill="rgb(224,88,21)" rx="2" ry="2" />
<text  x="1497.61" y="755.5" >winner (minisom.py:377)</text>
</g>
<g >
<title>get_decay_rate (minisom.py:528) (3,590 us, 0.20%)</title><rect x="926.5" y="721" width="3.7" height="63.0" fill="rgb(238,154,36)" rx="2" ry="2" />
<text  x="929.53" y="755.5" ></text>
</g>
<g >
<title>&lt;method 'reduce' of 'numpy.ufunc' objects&gt; (85,929 us, 4.71%)</title><rect x="1801.5" y="465" width="88.5" height="63.0" fill="rgb(228,109,26)" rx="2" ry="2" />
<text  x="1804.50" y="499.5" >&lt;method..</text>
</g>
<g >
<title>&lt;built-in method numpy._core._multiarray_umath.c_einsum&gt; (91,411 us, 5.01%)</title><rect x="1400.5" y="593" width="94.1" height="63.0" fill="rgb(225,95,22)" rx="2" ry="2" />
<text  x="1403.46" y="627.5" >&lt;built-..</text>
</g>
<g >
<title>&lt;built-in method _imp.create_dynamic&gt; (85,651 us, 4.69%)</title><rect x="140.3" y="593" width="88.2" height="63.0" fill="rgb(253,222,53)" rx="2" ry="2" />
<text  x="143.29" y="627.5" >&lt;built-..</text>
</g>
<g >
<title>stack (shape_base.py:380) (35,355 us, 1.94%)</title><rect x="771.5" y="721" width="36.5" height="63.0" fill="rgb(219,67,16)" rx="2" ry="2" />
<text  x="774.55" y="755.5" >s..</text>
</g>
<g >
<title>_compute_derivatives (corner.py:19) (2,954 us, 0.16%)</title><rect x="808.3" y="657" width="3.0" height="63.0" fill="rgb(222,82,19)" rx="2" ry="2" />
<text  x="811.27" y="691.5" ></text>
</g>
<g >
<title>_call_with_frames_removed (&lt;frozen importlib._bootstrap&gt;:480) (92,455 us, 5.07%)</title><rect x="309.3" y="529" width="95.2" height="63.0" fill="rgb(242,171,41)" rx="2" ry="2" />
<text  x="312.29" y="563.5" >_call_wi..</text>
</g>
<g >
<title>&lt;built-in method _imp.exec_dynamic&gt; (6,022 us, 0.33%)</title><rect x="363.1" y="465" width="6.2" height="63.0" fill="rgb(240,163,39)" rx="2" ry="2" />
<text  x="366.13" y="499.5" ></text>
</g>
<g >
<title>__init__ (threadpoolctl.py:816) (12,446 us, 0.68%)</title><rect x="837.3" y="465" width="12.9" height="63.0" fill="rgb(233,132,31)" rx="2" ry="2" />
<text  x="840.33" y="499.5" ></text>
</g>
<g >
<title>&lt;method 'argmin' of 'numpy.ndarray' objects&gt; (16,010 us, 0.88%)</title><rect x="1543.3" y="657" width="16.5" height="63.0" fill="rgb(246,190,45)" rx="2" ry="2" />
<text  x="1546.34" y="691.5" ></text>
</g>
<g >
<title>exec_module (&lt;frozen importlib._bootstrap_external&gt;:1326) (44,403 us, 2.43%)</title><rect x="439.7" y="593" width="45.8" height="63.0" fill="rgb(238,152,36)" rx="2" ry="2" />
<text  x="442.74" y="627.5" >ex..</text>
</g>
<g >
<title>_count_physical_cores (context.py:227) (8,722 us, 0.48%)</title><rect x="855.5" y="465" width="9.0" height="63.0" fill="rgb(248,198,47)" rx="2" ry="2" />
<text  x="858.49" y="499.5" ></text>
</g>
<g >
<title>__enter__ (&lt;frozen importlib._bootstrap&gt;:416) (5,047 us, 0.28%)</title><rect x="133.5" y="721" width="5.1" height="63.0" fill="rgb(219,66,15)" rx="2" ry="2" />
<text  x="136.45" y="755.5" ></text>
</g>
<g >
<title>gaussian_filter (_filters.py:756) (36,707 us, 2.01%)</title><rect x="733.7" y="721" width="37.8" height="63.0" fill="rgb(244,182,43)" rx="2" ry="2" />
<text  x="736.74" y="755.5" >ga..</text>
</g>
<g >
<title>_load_libraries (threadpoolctl.py:967) (12,403 us, 0.68%)</title><rect x="837.4" y="401" width="12.8" height="63.0" fill="rgb(212,36,8)" rx="2" ry="2" />
<text  x="840.38" y="435.5" ></text>
</g>
<g >
<title>_execute_nD (_basic_backend.py:52) (40,651 us, 2.23%)</title><rect x="628.3" y="465" width="41.8" height="63.0" fill="rgb(239,159,38)" rx="2" ry="2" />
<text  x="631.27" y="499.5" >_e..</text>
</g>
<g >
<title>all (1,825,288 us, 100%)</title><rect x="10.0" y="913" width="1880.0" height="63.0" fill="rgb(213,39,9)" rx="2" ry="2" />
<text  x="13.00" y="947.5" ></text>
</g>
<g >
<title>_find_and_load (&lt;frozen importlib._bootstrap&gt;:1349) (477 us, 0.03%)</title><rect x="530.0" y="337" width="0.5" height="63.0" fill="rgb(221,74,17)" rx="2" ry="2" />
<text  x="532.97" y="371.5" ></text>
</g>
<g >
<title>gaussian_filter1d (_filters.py:687) (14,204 us, 0.78%)</title><rect x="811.6" y="529" width="14.6" height="63.0" fill="rgb(212,35,8)" rx="2" ry="2" />
<text  x="814.59" y="563.5" ></text>
</g>
<g >
<title>acquire (&lt;frozen importlib._bootstrap&gt;:304) (3,374 us, 0.18%)</title><rect x="135.2" y="657" width="3.4" height="63.0" fill="rgb(232,124,29)" rx="2" ry="2" />
<text  x="138.17" y="691.5" ></text>
</g>
<g >
<title>_find_and_load (&lt;frozen importlib._bootstrap&gt;:1349) (114 us, 0.01%)</title><rect x="529.8" y="337" width="0.1" height="63.0" fill="rgb(221,74,17)" rx="2" ry="2" />
<text  x="532.80" y="371.5" ></text>
</g>
<g >
<title>_freq_domain_conv (_signaltools.py:511) (107,921 us, 5.91%)</title><rect x="622.6" y="657" width="111.1" height="63.0" fill="rgb(241,166,39)" rx="2" ry="2" />
<text  x="625.58" y="691.5" >_freq_dom..</text>
</g>
<g >
<title>train (minisom.py:482) (985,526 us, 53.99%)</title><rect x="874.9" y="785" width="1015.1" height="63.0" fill="rgb(249,203,48)" rx="2" ry="2" />
<text  x="877.93" y="819.5" >train (minisom.py:482)</text>
</g>
<g >
<title>&lt;built-in method scipy.fft._pocketfft.pypocketfft.c2r&gt; (16,142 us, 0.88%)</title><rect x="628.5" y="337" width="16.6" height="63.0" fill="rgb(207,11,2)" rx="2" ry="2" />
<text  x="631.49" y="371.5" ></text>
</g>
<g >
<title>find_spec (&lt;frozen importlib._bootstrap_external&gt;:1624) (8,302 us, 0.45%)</title><rect x="299.9" y="465" width="8.6" height="63.0" fill="rgb(222,78,18)" rx="2" ry="2" />
<text  x="302.91" y="499.5" ></text>
</g>
<g >
<title>&lt;built-in method builtins.exec&gt; (26,004 us, 1.42%)</title><rect x="458.7" y="465" width="26.8" height="63.0" fill="rgb(214,44,10)" rx="2" ry="2" />
<text  x="461.69" y="499.5" ></text>
</g>
<g >
<title>_fix_shape (helper.py:145) (3,236 us, 0.18%)</title><rect x="666.8" y="337" width="3.3" height="63.0" fill="rgb(220,70,16)" rx="2" ry="2" />
<text  x="669.81" y="371.5" ></text>
</g>
<g >
<title>r2cn (basic.py:157) (36,234 us, 1.99%)</title><rect x="696.4" y="401" width="37.3" height="63.0" fill="rgb(212,34,8)" rx="2" ry="2" />
<text  x="699.42" y="435.5" >r..</text>
</g>
<g >
<title>&lt;built-in method _imp.exec_dynamic&gt; (1,864 us, 0.10%)</title><rect x="456.5" y="465" width="2.0" height="63.0" fill="rgb(240,163,39)" rx="2" ry="2" />
<text  x="459.53" y="499.5" ></text>
</g>
<g >
<title>&lt;built-in method builtins.len&gt; (3,159 us, 0.17%)</title><rect x="918.9" y="721" width="3.3" height="63.0" fill="rgb(223,85,20)" rx="2" ry="2" />
<text  x="921.95" y="755.5" ></text>
</g>
<g >
<title>&lt;method 'get' of 'dict' objects&gt; (4,198 us, 0.23%)</title><rect x="922.2" y="721" width="4.3" height="63.0" fill="rgb(224,90,21)" rx="2" ry="2" />
<text  x="925.20" y="755.5" ></text>
</g>
<g >
<title>correlate1d (_filters.py:555) (14,171 us, 0.78%)</title><rect x="811.6" y="465" width="14.6" height="63.0" fill="rgb(229,111,26)" rx="2" ry="2" />
<text  x="814.62" y="499.5" ></text>
</g>
<g >
<title>xp_copy (_array_api.py:217) (3,939 us, 0.22%)</title><rect x="618.5" y="593" width="4.1" height="63.0" fill="rgb(224,88,21)" rx="2" ry="2" />
<text  x="621.53" y="627.5" ></text>
</g>
<g >
<title>_call_with_frames_removed (&lt;frozen importlib._bootstrap&gt;:480) (70,056 us, 3.84%)</title><rect x="487.1" y="465" width="72.1" height="63.0" fill="rgb(242,171,41)" rx="2" ry="2" />
<text  x="490.07" y="499.5" >_call..</text>
</g>
<g >
<title>_find_and_load (&lt;frozen importlib._bootstrap&gt;:1349) (669 us, 0.04%)</title><rect x="369.4" y="401" width="0.7" height="63.0" fill="rgb(221,74,17)" rx="2" ry="2" />
<text  x="372.41" y="435.5" ></text>
</g>
<g >
<title>&lt;built-in method scipy.ndimage._nd_image.correlate1d&gt; (36,059 us, 1.98%)</title><rect x="734.4" y="529" width="37.1" height="63.0" fill="rgb(205,2,0)" rx="2" ry="2" />
<text  x="737.41" y="563.5" >&lt;..</text>
</g>
<g >
<title>_load_unlocked (&lt;frozen importlib._bootstrap&gt;:911) (243,470 us, 13.34%)</title><rect x="308.5" y="657" width="250.7" height="63.0" fill="rgb(250,208,49)" rx="2" ry="2" />
<text  x="311.46" y="691.5" >_load_unlocked (&lt;frozen ..</text>
</g>
<g >
<title>&lt;method 'max' of 'numpy.ndarray' objects&gt; (2,442 us, 0.13%)</title><rect x="579.5" y="721" width="2.5" height="63.0" fill="rgb(211,32,7)" rx="2" ry="2" />
<text  x="582.45" y="755.5" ></text>
</g>
<g >
<title>_find_and_load (&lt;frozen importlib._bootstrap&gt;:1349) (415,288 us, 22.75%)</title><rect x="131.5" y="785" width="427.7" height="63.0" fill="rgb(221,74,17)" rx="2" ry="2" />
<text  x="134.49" y="819.5" >_find_and_load (&lt;frozen importlib._bootstra..</text>
</g>
<g >
<title>_euclidean_distances (pairwise.py:374) (2,706 us, 0.15%)</title><rect x="852.5" y="465" width="2.8" height="63.0" fill="rgb(253,222,53)" rx="2" ry="2" />
<text  x="855.54" y="499.5" ></text>
</g>
<g >
<title>_kmeans_plusplus (_kmeans.py:180) (4,987 us, 0.27%)</title><rect x="850.2" y="529" width="5.1" height="63.0" fill="rgb(231,122,29)" rx="2" ry="2" />
<text  x="853.19" y="563.5" ></text>
</g>
<g >
<title>_execute_nD (_basic_backend.py:52) (61,723 us, 3.38%)</title><rect x="670.2" y="465" width="63.5" height="63.0" fill="rgb(239,159,38)" rx="2" ry="2" />
<text  x="673.17" y="499.5" >_exe..</text>
</g>
<g >
<title>_amin (_methods.py:45) (3,187 us, 0.17%)</title><rect x="582.0" y="657" width="3.3" height="63.0" fill="rgb(247,196,46)" rx="2" ry="2" />
<text  x="584.97" y="691.5" ></text>
</g>
<g >
<title>&lt;built-in method numpy.zeros&gt; (3,576 us, 0.20%)</title><rect x="730.1" y="273" width="3.6" height="63.0" fill="rgb(217,58,13)" rx="2" ry="2" />
<text  x="733.06" y="307.5" ></text>
</g>
<g >
<title>_call_with_frames_removed (&lt;frozen importlib._bootstrap&gt;:480) (151,572 us, 8.30%)</title><rect x="140.3" y="657" width="156.1" height="63.0" fill="rgb(242,171,41)" rx="2" ry="2" />
<text  x="143.26" y="691.5" >_call_with_fra..</text>
</g>
<g >
<title>_call_with_frames_removed (&lt;frozen importlib._bootstrap&gt;:480) (44,381 us, 2.43%)</title><rect x="439.8" y="529" width="45.7" height="63.0" fill="rgb(242,171,41)" rx="2" ry="2" />
<text  x="442.76" y="563.5" >_c..</text>
</g>
<g >
<title>cpu_count (context.py:78) (8,864 us, 0.49%)</title><rect x="855.3" y="529" width="9.2" height="63.0" fill="rgb(241,166,39)" rx="2" ry="2" />
<text  x="858.35" y="563.5" ></text>
</g>
<g >
<title>&lt;method 'reduce' of 'numpy.ufunc' objects&gt; (3,186 us, 0.17%)</title><rect x="582.0" y="593" width="3.3" height="63.0" fill="rgb(228,109,26)" rx="2" ry="2" />
<text  x="584.97" y="627.5" ></text>
</g>
<g >
<title>create_module (&lt;frozen importlib._bootstrap_external&gt;:1318) (70,086 us, 3.84%)</title><rect x="487.0" y="529" width="72.2" height="63.0" fill="rgb(244,181,43)" rx="2" ry="2" />
<text  x="490.04" y="563.5" >creat..</text>
</g>
<g >
<title>_einsum_dispatcher (einsumfunc.py:1049) (11,114 us, 0.61%)</title><rect x="1142.0" y="657" width="11.5" height="63.0" fill="rgb(228,108,25)" rx="2" ry="2" />
<text  x="1145.02" y="691.5" ></text>
</g>
<g >
<title>fit_predict (_kmeans.py:1047) (41,055 us, 2.25%)</title><rect x="832.6" y="785" width="42.3" height="63.0" fill="rgb(221,75,18)" rx="2" ry="2" />
<text  x="835.65" y="819.5" >fi..</text>
</g>
<g >
<title>_find_and_load (&lt;frozen importlib._bootstrap&gt;:1349) (263 us, 0.01%)</title><rect x="238.4" y="529" width="0.3" height="63.0" fill="rgb(221,74,17)" rx="2" ry="2" />
<text  x="241.41" y="563.5" ></text>
</g>
<g >
<title>_find_and_load (&lt;frozen importlib._bootstrap&gt;:1349) (208 us, 0.01%)</title><rect x="458.5" y="401" width="0.2" height="63.0" fill="rgb(221,74,17)" rx="2" ry="2" />
<text  x="461.48" y="435.5" ></text>
</g>
<g >
<title>sobel (_filters.py:925) (2,950 us, 0.16%)</title><rect x="808.3" y="593" width="3.0" height="63.0" fill="rgb(250,208,49)" rx="2" ry="2" />
<text  x="811.27" y="627.5" ></text>
</g>
<g >
<title>_find_and_load_unlocked (&lt;frozen importlib._bootstrap&gt;:1304) (408,336 us, 22.37%)</title><rect x="138.6" y="721" width="420.6" height="63.0" fill="rgb(205,1,0)" rx="2" ry="2" />
<text  x="141.65" y="755.5" >_find_and_load_unlocked (&lt;frozen importlib..</text>
</g>
<g >
<title>_execute_child (subprocess.py:1808) (7,014 us, 0.38%)</title><rect x="857.3" y="209" width="7.2" height="63.0" fill="rgb(232,124,29)" rx="2" ry="2" />
<text  x="860.25" y="243.5" ></text>
</g>
<g >
<title>_kmeans_single_lloyd (_kmeans.py:629) (9,446 us, 0.52%)</title><rect x="865.2" y="529" width="9.7" height="63.0" fill="rgb(218,63,15)" rx="2" ry="2" />
<text  x="868.20" y="563.5" ></text>
</g>
<g >
<title>realpath (&lt;frozen posixpath&gt;:391) (8,720 us, 0.48%)</title><rect x="841.2" y="145" width="9.0" height="63.0" fill="rgb(243,178,42)" rx="2" ry="2" />
<text  x="844.17" y="179.5" ></text>
</g>
<g >
<title>&lt;built-in method builtins.len&gt; (2,833 us, 0.16%)</title><rect x="1790.9" y="465" width="3.0" height="63.0" fill="rgb(223,85,20)" rx="2" ry="2" />
<text  x="1793.94" y="499.5" ></text>
</g>
<g >
<title>_find_spec (&lt;frozen importlib._bootstrap&gt;:1240) (11,727 us, 0.64%)</title><rect x="296.4" y="657" width="12.1" height="63.0" fill="rgb(211,30,7)" rx="2" ry="2" />
<text  x="299.38" y="691.5" ></text>
</g>
<g >
<title>&lt;built-in method scipy.ndimage._nd_image.correlate1d&gt; (2,720 us, 0.15%)</title><rect x="808.5" y="465" width="2.8" height="63.0" fill="rgb(205,2,0)" rx="2" ry="2" />
<text  x="811.51" y="499.5" ></text>
</g>
<g >
<title>&lt;built-in method scipy.fft._pocketfft.pypocketfft.r2c&gt; (20,779 us, 1.14%)</title><rect x="645.4" y="337" width="21.4" height="63.0" fill="rgb(207,11,2)" rx="2" ry="2" />
<text  x="648.41" y="371.5" ></text>
</g>
<g >
<title>&lt;module&gt; (__init__.py:1) (454 us, 0.02%)</title><rect x="403.7" y="401" width="0.4" height="63.0" fill="rgb(207,11,2)" rx="2" ry="2" />
<text  x="406.65" y="435.5" ></text>
</g>
<g >
<title>norm (_linalg.py:2623) (198,942 us, 10.90%)</title><rect x="1685.1" y="529" width="204.9" height="63.0" fill="rgb(224,88,21)" rx="2" ry="2" />
<text  x="1688.09" y="563.5" >norm (_linalg.py:26..</text>
</g>
<g >
<title>&lt;built-in method scipy.ndimage._nd_image.uniform_filter1d&gt; (5,741 us, 0.31%)</title><rect x="826.7" y="593" width="5.9" height="63.0" fill="rgb(215,48,11)" rx="2" ry="2" />
<text  x="829.73" y="627.5" ></text>
</g>
<g >
<title>&lt;built-in method builtins.__import__&gt; (1,225 us, 0.07%)</title><rect x="238.7" y="593" width="1.2" height="63.0" fill="rgb(220,73,17)" rx="2" ry="2" />
<text  x="241.68" y="627.5" ></text>
</g>
<g >
<title>uniform_filter (_filters.py:1549) (6,244 us, 0.34%)</title><rect x="826.2" y="721" width="6.4" height="63.0" fill="rgb(215,50,12)" rx="2" ry="2" />
<text  x="829.22" y="755.5" ></text>
</g>
<g >
<title>som_segment (som_bands.py:112) (1,825,288 us, 100.00%)</title><rect x="10.0" y="849" width="1880.0" height="63.0" fill="rgb(208,16,4)" rx="2" ry="2" />
<text  x="13.00" y="883.5" >som_segment (som_bands.py:112)</text>
</g>
<g >
<title>_asymptotic_decay (minisom.py:313) (8,685 us, 0.48%)</title><rect x="1133.1" y="657" width="8.9" height="63.0" fill="rgb(209,22,5)" rx="2" ry="2" />
<text  x="1136.08" y="691.5" ></text>
</g>
<g >
<title>&lt;built-in method numpy.zeros&gt; (2,398 us, 0.13%)</title><rect x="667.7" y="273" width="2.4" height="63.0" fill="rgb(217,58,13)" rx="2" ry="2" />
<text  x="670.67" y="307.5" ></text>
</g>
<g >
<title>irfftn (_basic_backend.py:147) (40,662 us, 2.23%)</title><rect x="628.3" y="529" width="41.8" height="63.0" fill="rgb(209,19,4)" rx="2" ry="2" />
<text  x="631.26" y="563.5" >ir..</text>
</g>
<g >
<title>&lt;module&gt; (_array_api.py:1) (195 us, 0.01%)</title><rect x="295.7" y="529" width="0.2" height="63.0" fill="rgb(215,47,11)" rx="2" ry="2" />
<text  x="298.73" y="563.5" ></text>
</g>
<g >
<title>module_from_spec (&lt;frozen importlib._bootstrap&gt;:806) (71,605 us, 3.92%)</title><rect x="485.5" y="593" width="73.7" height="63.0" fill="rgb(230,118,28)" rx="2" ry="2" />
<text  x="488.47" y="627.5" >modul..</text>
</g>
<g >
<title>wrapper (base.py:1319) (41,048 us, 2.25%)</title><rect x="832.7" y="721" width="42.2" height="63.0" fill="rgb(253,221,53)" rx="2" ry="2" />
<text  x="835.66" y="755.5" >wr..</text>
</g>
<g >
<title>extract_features (som_bands.py:26) (225,340 us, 12.35%)</title><rect x="600.6" y="785" width="232.0" height="63.0" fill="rgb(230,116,27)" rx="2" ry="2" />
<text  x="603.55" y="819.5" >extract_features (som_..</text>
</g>
<g >
<title>&lt;built-in method _imp.create_dynamic&gt; (16,170 us, 0.89%)</title><rect x="439.9" y="465" width="16.6" height="63.0" fill="rgb(253,222,53)" rx="2" ry="2" />
<text  x="442.88" y="499.5" ></text>
</g>
<g >
<title>_normalize_per_feature (som_bands.py:104) (25,270 us, 1.38%)</title><rect x="559.2" y="785" width="26.1" height="63.0" fill="rgb(210,24,5)" rx="2" ry="2" />
<text  x="562.23" y="819.5" ></text>
</g>
<g >
<title>&lt;built-in method builtins.isinstance&gt; (3,844 us, 0.21%)</title><rect x="1784.1" y="465" width="4.0" height="63.0" fill="rgb(252,220,52)" rx="2" ry="2" />
<text  x="1787.14" y="499.5" ></text>
</g>
<g >
<title>argmin (fromnumeric.py:1348) (14,855 us, 0.81%)</title><rect x="585.3" y="785" width="15.3" height="63.0" fill="rgb(247,196,47)" rx="2" ry="2" />
<text  x="588.25" y="819.5" ></text>
</g>
<g >
<title>_find_and_load (&lt;frozen importlib._bootstrap&gt;:1349) (161 us, 0.01%)</title><rect x="369.2" y="401" width="0.1" height="63.0" fill="rgb(221,74,17)" rx="2" ry="2" />
<text  x="372.16" y="435.5" ></text>
</g>
<g >
<title>&lt;built-in method numpy.asarray&gt; (2,703 us, 0.15%)</title><rect x="1793.9" y="465" width="2.7" height="63.0" fill="rgb(227,103,24)" rx="2" ry="2" />
<text  x="1796.86" y="499.5" ></text>
</g>
<g >
<title>&lt;built-in method builtins.__import__&gt; (533 us, 0.03%)</title><rect x="529.9" y="401" width="0.6" height="63.0" fill="rgb(220,73,17)" rx="2" ry="2" />
<text  x="532.91" y="435.5" ></text>
</g>
<g >
<title>&lt;built-in method scipy.ndimage._nd_image.correlate1d&gt; (14,152 us, 0.78%)</title><rect x="811.6" y="401" width="14.6" height="63.0" fill="rgb(205,2,0)" rx="2" ry="2" />
<text  x="814.64" y="435.5" ></text>
</g>
<g >
<title>_amax (_methods.py:41) (2,440 us, 0.13%)</title><rect x="579.5" y="657" width="2.5" height="63.0" fill="rgb(210,25,6)" rx="2" ry="2" />
<text  x="582.45" y="691.5" ></text>
</g>
<g >
<title>_find_and_load (&lt;frozen importlib._bootstrap&gt;:1349) (1,097 us, 0.06%)</title><rect x="238.8" y="529" width="1.1" height="63.0" fill="rgb(221,74,17)" rx="2" ry="2" />
<text  x="241.81" y="563.5" ></text>
</g>
<g >
<title>&lt;module&gt; (_array_api.py:1) (119 us, 0.01%)</title><rect x="404.1" y="401" width="0.1" height="63.0" fill="rgb(215,47,11)" rx="2" ry="2" />
<text  x="407.12" y="435.5" ></text>
</g>
<g >
<title>&lt;method 'min' of 'numpy.ndarray' objects&gt; (3,190 us, 0.17%)</title><rect x="582.0" y="721" width="3.3" height="63.0" fill="rgb(224,91,21)" rx="2" ry="2" />
<text  x="584.97" y="755.5" ></text>
</g>
<g >
<title>&lt;module&gt; (__init__.py:1) (306 us, 0.02%)</title><rect x="558.6" y="337" width="0.4" height="63.0" fill="rgb(207,11,2)" rx="2" ry="2" />
<text  x="561.65" y="371.5" ></text>
</g>
<g >
<title>&lt;built-in method _io.open_code&gt; (3,391 us, 0.19%)</title><rect x="414.8" y="401" width="3.5" height="63.0" fill="rgb(248,202,48)" rx="2" ry="2" />
<text  x="417.83" y="435.5" ></text>
</g>
<g >
<title>&lt;method 'argmin' of 'numpy.ndarray' objects&gt; (13,938 us, 0.76%)</title><rect x="586.2" y="657" width="14.4" height="63.0" fill="rgb(246,190,45)" rx="2" ry="2" />
<text  x="589.20" y="691.5" ></text>
</g>
<g >
<title>r2cn (basic.py:157) (24,303 us, 1.33%)</title><rect x="645.1" y="401" width="25.0" height="63.0" fill="rgb(212,34,8)" rx="2" ry="2" />
<text  x="648.11" y="435.5" ></text>
</g>
<g >
<title>_realpath (threadpoolctl.py:545) (8,856 us, 0.49%)</title><rect x="841.0" y="209" width="9.2" height="63.0" fill="rgb(213,38,9)" rx="2" ry="2" />
<text  x="844.03" y="243.5" ></text>
</g>
<g >
<title>&lt;built-in method _imp.exec_dynamic&gt; (4,297 us, 0.24%)</title><rect x="525.5" y="401" width="4.4" height="63.0" fill="rgb(240,163,39)" rx="2" ry="2" />
<text  x="528.49" y="435.5" ></text>
</g>
<g >
<title>_norm_dispatcher (_linalg.py:2619) (2,326 us, 0.13%)</title><rect x="1682.7" y="529" width="2.4" height="63.0" fill="rgb(247,196,46)" rx="2" ry="2" />
<text  x="1685.70" y="563.5" ></text>
</g>
<g >
<title>rfftn (_basic_backend.py:136) (61,746 us, 3.38%)</title><rect x="670.1" y="529" width="63.6" height="63.0" fill="rgb(250,208,49)" rx="2" ry="2" />
<text  x="673.14" y="563.5" >rfft..</text>
</g>
<g >
<title>&lt;built-in method builtins.__import__&gt; (232 us, 0.01%)</title><rect x="458.5" y="465" width="0.2" height="63.0" fill="rgb(220,73,17)" rx="2" ry="2" />
<text  x="461.45" y="499.5" ></text>
</g>
<g >
<title>update (minisom.py:383) (547,964 us, 30.02%)</title><rect x="930.2" y="721" width="564.4" height="63.0" fill="rgb(246,192,46)" rx="2" ry="2" />
<text  x="933.22" y="755.5" >update (minisom.py:383)</text>
</g>
<g >
<title>&lt;built-in method scipy.fft._pocketfft.pypocketfft.r2c&gt; (30,979 us, 1.70%)</title><rect x="696.9" y="337" width="31.9" height="63.0" fill="rgb(207,11,2)" rx="2" ry="2" />
<text  x="699.86" y="371.5" >&lt;..</text>
</g>
<g >
<title>&lt;built-in method _posixsubprocess.fork_exec&gt; (5,456 us, 0.30%)</title><rect x="858.9" y="145" width="5.6" height="63.0" fill="rgb(206,6,1)" rx="2" ry="2" />
<text  x="861.86" y="179.5" ></text>
</g>
<g >
<title>_fix_shape (helper.py:145) (4,825 us, 0.26%)</title><rect x="728.8" y="337" width="4.9" height="63.0" fill="rgb(220,70,16)" rx="2" ry="2" />
<text  x="731.77" y="371.5" ></text>
</g>
<g >
<title>&lt;built-in method builtins.__import__&gt; (747 us, 0.04%)</title><rect x="369.3" y="465" width="0.8" height="63.0" fill="rgb(220,73,17)" rx="2" ry="2" />
<text  x="372.33" y="499.5" ></text>
</g>
<g >
<title>structure_tensor (corner.py:46) (17,723 us, 0.97%)</title><rect x="808.0" y="721" width="18.2" height="63.0" fill="rgb(238,156,37)" rx="2" ry="2" />
<text  x="810.96" y="755.5" ></text>
</g>
<g >
<title>&lt;built-in method builtins.exec&gt; (27,927 us, 1.53%)</title><rect x="530.5" y="401" width="28.7" height="63.0" fill="rgb(214,44,10)" rx="2" ry="2" />
<text  x="533.46" y="435.5" >&lt;..</text>
</g>
<g >
<title>_init_centroids (_kmeans.py:961) (5,025 us, 0.28%)</title><rect x="850.2" y="593" width="5.1" height="63.0" fill="rgb(215,46,11)" rx="2" ry="2" />
<text  x="853.15" y="627.5" ></text>
</g>
<g >
<title>run (subprocess.py:512) (8,690 us, 0.48%)</title><rect x="855.5" y="337" width="9.0" height="63.0" fill="rgb(235,139,33)" rx="2" ry="2" />
<text  x="858.52" y="371.5" ></text>
</g>
<g >
<title>c2rn (basic.py:186) (24,304 us, 1.33%)</title><rect x="671.4" y="401" width="25.0" height="63.0" fill="rgb(249,204,49)" rx="2" ry="2" />
<text  x="674.39" y="435.5" ></text>
</g>
</g>
</svg>
